<svg class="main-svg" xmlns="http://www.w3.org/2000/svg" xmlns:xlink="http://www.w3.org/1999/xlink" width="700" height="450" viewBox="0 0 700 450"><rect x="0" y="0" width="700" height="450" style="fill: rgb(255, 255, 255); fill-opacity: 1;"/><defs id="defs-379526"><g class="clips"><clipPath id="clip379526xyplot" class="plotclip"><rect width="480" height="270"/></clipPath><clipPath class="axesclip" id="clip379526x"><rect x="80" y="0" width="480" height="450"/></clipPath><clipPath class="axesclip" id="clip379526y"><rect x="0" y="100" width="700" height="270"/></clipPath><clipPath class="axesclip" id="clip379526xy"><rect x="80" y="100" width="480" height="270"/></clipPath></g><g class="gradients"/></defs><g class="bglayer"><rect class="bg" x="80" y="100" width="480" height="270" style="fill: rgb(229, 236, 246); fill-opacity: 1; stroke-width: 0;"/></g><g class="layer-below"><g class="imagelayer"/><g class="shapelayer"/></g><g class="cartesianlayer"><g class="subplot xy"><g class="layer-subplot"><g class="shapelayer"/><g class="imagelayer"/></g><g class="gridlayer"><g class="x"><path class="xgrid crisp" transform="translate(133.51,0)" d="M0,100v270" style="stroke: rgb(255, 255, 255); stroke-opacity: 1; stroke-width: 1px;"/><path class="xgrid crisp" transform="translate(229.51,0)" d="M0,100v270" style="stroke: rgb(255, 255, 255); stroke-opacity: 1; stroke-width: 1px;"/><path class="xgrid crisp" transform="translate(325.51,0)" d="M0,100v270" style="stroke: rgb(255, 255, 255); stroke-opacity: 1; stroke-width: 1px;"/><path class="xgrid crisp" transform="translate(419.93,0)" d="M0,100v270" style="stroke: rgb(255, 255, 255); stroke-opacity: 1; stroke-width: 1px;"/><path class="xgrid crisp" transform="translate(515.9300000000001,0)" d="M0,100v270" style="stroke: rgb(255, 255, 255); stroke-opacity: 1; stroke-width: 1px;"/></g><g class="y"><path class="ygrid crisp" transform="translate(0,314.53999999999996)" d="M80,0h480" style="stroke: rgb(255, 255, 255); stroke-opacity: 1; stroke-width: 1px;"/><path class="ygrid crisp" transform="translate(0,245.57)" d="M80,0h480" style="stroke: rgb(255, 255, 255); stroke-opacity: 1; stroke-width: 1px;"/><path class="ygrid crisp" transform="translate(0,176.61)" d="M80,0h480" style="stroke: rgb(255, 255, 255); stroke-opacity: 1; stroke-width: 1px;"/><path class="ygrid crisp" transform="translate(0,107.64)" d="M80,0h480" style="stroke: rgb(255, 255, 255); stroke-opacity: 1; stroke-width: 1px;"/></g></g><g class="zerolinelayer"/><path class="xlines-below"/><path class="ylines-below"/><g class="overlines-below"/><g class="xaxislayer-below"/><g class="yaxislayer-below"/><g class="overaxes-below"/><g class="plot" transform="translate(80, 100)" clip-path="url('#clip379526xyplot')"><g class="scatterlayer mlayer"><g class="trace scatter tracee94909" style="stroke-miterlimit: 2; opacity: 1;"><g class="fills"/><g class="errorbars"/><g class="lines"><path class="js-line" d="M0,214.54L3.15,214.66L4.72,206.02L6.3,209.99L11.02,209.06L14.16,215.33L15.74,216.99L17.31,217.46L22.03,217.23L23.61,217.93L25.18,220.61L26.75,214.66L28.33,218.16L36.2,225.16L37.77,224.58L39.34,223.99L44.07,225.74L45.64,222.57L47.21,224.23L56.66,229.24L58.23,227.67L61.38,227.42L66.1,229.24L67.67,229.24L69.25,230.87L70.82,232.61L72.39,230.05L81.84,228.66L83.41,227.2L88.13,226.91L89.7,225.13L91.28,226.33L92.85,225.16L94.43,225.16L99.15,227.38L102.3,226.33L103.87,226.14L105.44,223.29L110.16,224.64L113.31,207.01L114.89,211.76L116.46,201.91L121.18,200.65L122.75,201.82L124.33,200.58L127.48,196.86L132.2,195.99L133.77,196.22L135.34,197.52L136.92,202.81L138.49,204.3L143.21,198.32L144.79,184.32L146.36,166.58L147.93,137.64L149.51,147.96L154.23,158.64L155.8,156.69L157.38,151.64L158.95,156.31L160.52,152.81L165.25,144.64L166.82,131.8L168.39,107.3L169.97,100.88L171.54,118.51L176.26,79.29L177.84,37.28L179.41,85.13L180.98,85.13L182.56,68.79L187.28,89.79L188.85,122.82L190.43,120.81L192,120.81L193.57,114.3L198.3,108.47L199.87,100.3L201.44,100.38L204.59,121.3L209.31,120.31L210.89,127.32L212.46,128.3L214.03,141.14L215.61,132.11L220.33,124.8L221.9,124.16L223.48,131.8L225.05,121.3L226.62,106.13L231.34,118.97L232.92,114.42L236.07,102.63L237.64,111.97L242.36,117.8L243.93,114.3L247.08,122.85L248.66,129.3L253.38,139.97L254.95,114.3L256.52,113.53L258.1,118.97L259.67,121.03L264.39,127.14L265.97,121.82L270.69,50.12L275.41,50.12L278.56,15.11L280.13,30.28L281.7,44.28L286.43,76.96L289.57,26.78L291.15,13.5L299.02,57.12L300.59,67.62L302.16,74.62L303.74,74.62L308.46,132.81L310.03,119.19L311.61,124.8L313.18,155.81L314.75,155.81L321.05,127.14L322.62,110.8L324.2,118.97L325.77,111.97L330.49,117.8L332.07,124.8L333.64,140.32L335.21,168.7L336.79,161.31L343.08,143.77L344.66,149.31L346.23,155.09L347.8,167.98L352.52,178.9L354.1,172.29L357.25,187.47L358.82,185.48L363.54,197.95L365.11,199.44L366.69,215.31L368.26,201.05L369.84,209.33L374.56,206.01L376.13,189.25L377.7,185.48L379.28,181.01L380.85,184.55L387.15,192.5L388.72,199.49L390.3,198.26L391.87,193.89L396.59,188.99L398.16,182.12L399.74,173.71L401.31,152.56L407.61,137.97L409.18,127.14L412.33,144.64L413.9,132.97L418.62,135.31L420.2,145.81L421.77,154.56L423.34,145.22L424.92,148.14L429.64,152.81L431.21,142.31L432.79,143.47L434.36,144.01L435.93,151.63L440.66,143.47L442.23,143.81L443.8,148.73L445.38,135.31L451.67,100.3L453.25,67.62L454.82,50.12L456.39,57.12L457.97,78.13L462.69,79.29L465.84,89.79L467.41,105.56L468.98,95.63L473.7,95.63L475.28,100.34L476.85,97.26L478.43,106.28L480,102.63" style="vector-effect: non-scaling-stroke; fill: none; stroke: rgb(99, 110, 250); stroke-opacity: 1; stroke-width: 2px; opacity: 1;"/></g><g class="points"/><g class="text"/></g><g class="trace scatter tracec90cd5" style="stroke-miterlimit: 2; opacity: 1;"><g class="fills"/><g class="errorbars"/><g class="lines"><path class="js-line" d="M0,214.54L1.57,213.25L3.15,213.09L4.72,213.22L6.3,209.76L14.16,209.82L15.74,210.95L17.31,212.19L22.03,213.66L23.61,213.74L25.18,215.17L26.75,216.72L28.33,215.26L37.77,216.1L39.34,216.79L45.64,217.89L47.21,218.14L50.36,217.18L56.66,216.3L58.23,215.11L59.8,212.66L61.38,212.07L66.1,213.83L67.67,214.8L69.25,214.53L70.82,215.66L72.39,215.8L78.69,214.35L80.26,215.41L81.84,216.25L83.41,216.19L88.13,217.47L89.7,221.01L99.15,223.12L100.72,224.59L102.3,225.97L103.87,225.28L105.44,224.87L110.16,225.83L111.74,225.18L113.31,223.13L114.89,226.25L116.46,225.35L121.18,225.22L122.75,223.94L124.33,225.37L125.9,225.18L127.48,225.66L132.2,224.91L136.92,227.58L138.49,226.27L144.79,224.8L146.36,223.47L147.93,221.12L149.51,222.07L157.38,222.11L158.95,223.25L160.52,222.62L165.25,222.46L168.39,218.93L169.97,219.17L171.54,221.87L176.26,219.72L177.84,215.31L179.41,219.6L180.98,217.94L182.56,217.84L187.28,220.37L188.85,223.85L193.57,222.71L198.3,223.59L201.44,223.5L203.02,225.01L204.59,225.55L209.31,224.84L210.89,226.08L212.46,226.01L214.03,226.95L215.61,225.16L220.33,225.31L221.9,226.54L223.48,227.76L225.05,226.7L226.62,224.08L231.34,225.23L232.92,225.22L236.07,224.04L237.64,225.21L242.36,225.96L243.93,224.46L247.08,224.09L248.66,224.68L253.38,225.17L254.95,221.64L256.52,221.19L259.67,222.85L264.39,222.1L265.97,221.67L267.54,218.06L270.69,212.26L275.41,212.7L276.98,211.54L278.56,206.52L281.7,212.57L286.43,217.01L289.57,209.88L291.15,208.75L292.72,211.93L297.44,214.92L299.02,215.22L300.59,214.15L303.74,215.73L308.46,218.78L310.03,213.82L311.61,215.06L313.18,221.7L314.75,220.23L321.05,217.66L322.62,217.85L324.2,219.51L325.77,219.54L330.49,223.35L332.07,227.22L336.79,233.98L341.51,230.77L344.66,231.38L346.23,231.55L347.8,234.64L352.52,242.08L354.1,240.23L355.67,243.31L357.25,249.13L358.82,247.2L366.69,256.5L368.26,252.72L374.56,253.23L376.13,249.8L379.28,247.31L380.85,248.6L387.15,249.26L388.72,252.14L390.3,250.55L391.87,250.71L398.16,246.99L399.74,245.55L401.31,242.76L407.61,242.51L409.18,240.46L410.75,241.46L412.33,242.4L413.9,239.84L418.62,239.2L420.2,241.01L421.77,241.21L423.34,238.77L424.92,239.05L429.64,237.36L432.79,233.62L434.36,234.46L435.93,237.59L440.66,237.13L442.23,236.83L443.8,235.31L446.95,230.19L451.67,230.45L453.25,226.74L454.82,226.47L456.39,226.29L457.97,227.96L462.69,228.07L464.26,226.95L465.84,226.99L467.41,228.49L468.98,226.92L473.7,226.27L475.28,227.14L476.85,226.64L480,226.6" style="vector-effect: non-scaling-stroke; fill: none; stroke: rgb(239, 85, 59); stroke-opacity: 1; stroke-width: 2px; opacity: 1;"/></g><g class="points"/><g class="text"/></g><g class="trace scatter tracee25ff0" style="stroke-miterlimit: 2; opacity: 1;"><g class="fills"/><g class="errorbars"/><g class="lines"><path class="js-line" d="M0,214.54L1.57,213.25L3.15,213.11L4.72,213.22L6.3,209.63L14.16,209.66L15.74,210.5L17.31,211.7L22.03,213L23.61,213.2L25.18,214.57L26.75,215.95L28.33,214.48L37.77,215.45L39.34,216.15L45.64,216.95L47.21,217.25L50.36,216.29L56.66,215.28L58.23,214.26L59.8,211.89L61.38,211.39L66.1,212.89L67.67,213.47L69.25,213.23L70.82,214.33L72.39,214.41L78.69,212.57L80.26,213.59L81.84,214.43L83.41,214.39L88.13,215.66L89.7,219.31L92.85,220.5L94.43,220.08L99.15,221.18L100.72,222.83L102.3,224.33L103.87,223.76L105.44,223.16L110.16,224.37L111.74,223.41L113.31,221.08L114.89,224.39L116.46,223.98L121.18,223.89L122.75,222.12L124.33,223.71L125.9,223.43L127.48,223.85L132.2,223.11L136.92,225.8L138.49,224.48L144.79,223.76L146.36,222.88L149.51,222.5L154.23,221.56L157.38,222.18L158.95,223.43L160.52,223.11L165.25,223.57L168.39,221.86L169.97,222.98L171.54,225.11L176.26,226.19L177.84,225.02L179.41,225.09L180.98,222.78L182.56,224.57L187.28,225.6L188.85,226.92L193.57,225.79L198.3,227.96L204.59,229.47L209.31,228.79L210.89,229.78L212.46,229.44L214.03,230.06L215.61,228.76L220.33,229.8L221.9,231.88L225.05,232.14L226.62,230.2L231.34,230.25L232.92,231.15L237.64,231.18L242.36,231.26L243.93,229.68L247.08,228.55L248.66,227.02L253.38,226.57L254.95,223.56L256.52,223.26L259.67,225.19L264.39,223.72L265.97,223.29L267.54,221.08L270.69,217.84L275.41,218.07L276.98,218.56L278.56,214.15L281.7,218.46L286.43,220.57L288,217.38L289.57,216.01L291.15,215.75L292.72,219.29L299.02,218.94L300.59,215.48L303.74,217.44L308.46,216.63L310.03,212.36L311.61,213.74L313.18,218.39L314.75,215.98L321.05,214.98L322.62,215.75L324.2,217.58L325.77,217.85L330.49,221.62L332.07,226.07L336.79,230.81L341.51,228.19L343.08,229.56L344.66,228.43L346.23,228.05L347.8,231.5L352.52,239.66L354.1,238.54L355.67,241.04L357.25,248.04L358.82,245.34L363.54,250.5L365.11,251.58L366.69,254.65L368.26,250.96L369.84,250.07L374.56,251.06L376.13,248.2L377.7,246.15L379.28,245.33L380.85,246.32L385.57,246.86L387.15,246.28L388.72,249.63L390.3,246.89L391.87,247.36L396.59,245.33L398.16,243.76L399.74,242.36L401.31,238.24L407.61,240.27L409.18,239.03L412.33,240.27L413.9,237.39L418.62,235.96L420.2,237.09L421.77,236.51L423.34,235.04L424.92,235.14L429.64,232.28L432.79,227.08L434.36,228.41L435.93,231.34L440.66,231.49L442.23,231.32L443.8,229.09L445.38,226.18L446.95,225.11L451.67,227.64L453.25,227.24L454.82,229.56L456.39,228.11L457.97,224.84L462.69,224.88L464.26,219.92L465.84,219.82L468.98,217.46L473.7,216.62L476.85,217.67L478.43,217.39L480,217.79" style="vector-effect: non-scaling-stroke; fill: none; stroke: rgb(0, 204, 150); stroke-opacity: 1; stroke-width: 2px; opacity: 1;"/></g><g class="points"/><g class="text"/></g><g class="trace scatter trace05cf6d" style="stroke-miterlimit: 2; opacity: 1;"><g class="fills"/><g class="errorbars"/><g class="lines"><path class="js-line" d="M0,214.54L3.15,214.19L4.72,207.68L6.3,209.82L11.02,209.07L14.16,211.37L15.74,214.21L17.31,214.98L22.03,215.96L23.61,216.74L25.18,218.49L26.75,213.98L28.33,217.02L34.62,222.19L36.2,223.77L39.34,223.24L44.07,224.87L45.64,222.52L47.21,224.98L56.66,227.89L58.23,227.14L61.38,227.39L66.1,228.61L67.67,227.73L69.25,229.27L70.82,230.7L72.39,228.58L77.11,227.29L78.69,224.71L81.84,226.64L83.41,225.64L89.7,226.63L91.28,227.83L94.43,226.63L99.15,227.29L100.72,227.41L102.3,228.73L103.87,230.04L105.44,226.94L110.16,227.95L111.74,219.75L113.31,211.25L114.89,216.07L116.46,209.63L121.18,208.72L124.33,207.88L125.9,206.22L127.48,205.55L132.2,204.53L133.77,204.7L135.34,206.78L136.92,211.34L138.49,212.4L143.21,207.34L144.79,197.75L147.93,167.15L149.51,174.37L154.23,180.6L155.8,180.47L157.38,178.43L158.95,181.4L165.25,175.3L166.82,166.6L168.39,151.53L169.97,149.42L171.54,159.75L176.26,135.41L177.84,113.11L179.41,141.98L180.98,143.08L182.56,136.13L187.28,146.33L188.85,164.99L190.43,162.81L192,162.81L193.57,156.03L198.3,155.28L199.87,150.51L201.44,149.48L204.59,163.79L209.31,163.2L210.89,169.35L212.46,167.83L214.03,179.36L215.61,175.14L220.33,170.97L221.9,173L223.48,174.6L225.05,169.75L226.62,159.98L231.34,165.8L232.92,164.39L236.07,157.77L237.64,160.27L242.36,164.8L243.93,164L247.08,170.09L248.66,169.89L253.38,178.36L254.95,157.76L256.52,159.42L258.1,162.59L259.67,162.69L264.39,167.37L265.97,164.22L270.69,120.38L275.41,120.38L276.98,113.3L278.56,94.98L280.13,108.93L281.7,115.16L286.43,128.06L288,109.87L291.15,80.52L292.72,87.52L297.44,99.56L299.02,107.6L300.59,105.21L302.16,104.22L303.74,100.04L308.46,127.37L310.03,110.12L311.61,117.09L313.18,149.91L314.75,146.05L322.62,110.29L324.2,117.3L325.77,112.12L330.49,121.58L333.64,145.2L335.21,164.27L336.79,161.21L341.51,145.14L343.08,144.01L344.66,149.47L346.23,148.86L347.8,158.77L352.52,173.7L354.1,166.82L355.67,174.68L357.25,187.73L358.82,184.49L363.54,197.69L365.11,197.81L366.69,211.73L368.26,196.13L369.84,204.01L374.56,201.6L376.13,185.23L377.7,183.99L379.28,180.36L380.85,183.75L385.57,188.13L387.15,189.57L388.72,196.33L391.87,190.05L396.59,182.58L399.74,169.65L401.31,151.15L407.61,142.74L409.18,131.67L412.33,143.99L413.9,134.64L418.62,134.6L420.2,143.6L421.77,148.44L423.34,136.08L424.92,139.04L429.64,140.18L431.21,130.57L432.79,127.1L434.36,127.57L435.93,136.37L440.66,131.12L442.23,130.52L443.8,131.32L445.38,117.29L446.95,106.53L451.67,87.9L453.25,56.57L454.82,42.96L456.39,48.71L457.97,69.48L462.69,70.45L464.26,74.75L465.84,79.21L467.41,96.18L468.98,87.3L473.7,86.2L475.28,92.31L476.85,88.08L478.43,94.01L480,91.4" style="vector-effect: non-scaling-stroke; fill: none; stroke: rgb(171, 99, 250); stroke-opacity: 1; stroke-width: 2px; opacity: 1;"/></g><g class="points"/><g class="text"/></g></g></g><g class="overplot"/><path class="xlines-above crisp" d="M0,0" style="fill: none;"/><path class="ylines-above crisp" d="M0,0" style="fill: none;"/><g class="overlines-above"/><g class="xaxislayer-above"><g class="xtick"><text text-anchor="middle" x="0" y="383" transform="translate(133.51,0)" style="font-family: 'Open Sans', verdana, arial, sans-serif; font-size: 12px; fill: rgb(42, 63, 95); fill-opacity: 1; white-space: pre;">Sep 2019</text></g><g class="xtick"><text text-anchor="middle" x="0" y="383" transform="translate(229.51,0)" style="font-family: 'Open Sans', verdana, arial, sans-serif; font-size: 12px; fill: rgb(42, 63, 95); fill-opacity: 1; white-space: pre;">Nov 2019</text></g><g class="xtick"><text text-anchor="middle" x="0" y="383" transform="translate(325.51,0)" style="font-family: 'Open Sans', verdana, arial, sans-serif; font-size: 12px; fill: rgb(42, 63, 95); fill-opacity: 1; white-space: pre;">Jan 2020</text></g><g class="xtick"><text text-anchor="middle" x="0" y="383" transform="translate(419.93,0)" style="font-family: 'Open Sans', verdana, arial, sans-serif; font-size: 12px; fill: rgb(42, 63, 95); fill-opacity: 1; white-space: pre;">Mar 2020</text></g><g class="xtick"><text text-anchor="middle" x="0" y="383" transform="translate(515.9300000000001,0)" style="font-family: 'Open Sans', verdana, arial, sans-serif; font-size: 12px; fill: rgb(42, 63, 95); fill-opacity: 1; white-space: pre;">May 2020</text></g></g><g class="yaxislayer-above"><g class="ytick"><text text-anchor="end" x="79" y="4.199999999999999" transform="translate(0,314.53999999999996)" style="font-family: 'Open Sans', verdana, arial, sans-serif; font-size: 12px; fill: rgb(42, 63, 95); fill-opacity: 1; white-space: pre;">1</text></g><g class="ytick"><text text-anchor="end" x="79" y="4.199999999999999" transform="translate(0,245.57)" style="font-family: 'Open Sans', verdana, arial, sans-serif; font-size: 12px; fill: rgb(42, 63, 95); fill-opacity: 1; white-space: pre;">2</text></g><g class="ytick"><text text-anchor="end" x="79" y="4.199999999999999" transform="translate(0,176.61)" style="font-family: 'Open Sans', verdana, arial, sans-serif; font-size: 12px; fill: rgb(42, 63, 95); fill-opacity: 1; white-space: pre;">3</text></g><g class="ytick"><text text-anchor="end" x="79" y="4.199999999999999" transform="translate(0,107.64)" style="font-family: 'Open Sans', verdana, arial, sans-serif; font-size: 12px; fill: rgb(42, 63, 95); fill-opacity: 1; white-space: pre;">4</text></g></g><g class="overaxes-above"/></g></g><g class="polarlayer"/><g class="ternarylayer"/><g class="geolayer"/><g class="funnelarealayer"/><g class="pielayer"/><g class="treemaplayer"/><g class="sunburstlayer"/><g class="glimages"/><defs id="topdefs-379526"><g class="clips"/><clipPath id="legend379526"><rect width="118" height="86" x="0" y="0"/></clipPath></defs><g class="layer-above"><g class="imagelayer"/><g class="shapelayer"/></g><g class="infolayer"><g class="legend" pointer-events="all" transform="translate(569.6, 100)"><rect class="bg" shape-rendering="crispEdges" width="118" height="86" x="0" y="0" style="stroke: rgb(68, 68, 68); stroke-opacity: 1; fill: rgb(255, 255, 255); fill-opacity: 1; stroke-width: 0px;"/><g class="scrollbox" transform="translate(0, 0)" clip-path="url('#legend379526')"><g class="groups"><g class="traces" transform="translate(0, 14.5)" style="opacity: 1;"><text class="legendtext user-select-none" text-anchor="start" x="40" y="4.680000000000001" style="font-family: 'Open Sans', verdana, arial, sans-serif; font-size: 12px; fill: rgb(42, 63, 95); fill-opacity: 1; white-space: pre;">Best Stock</text><g class="layers" style="opacity: 1;"><g class="legendfill"/><g class="legendlines"><path class="js-line" d="M5,0h30" style="fill: none; stroke: rgb(99, 110, 250); stroke-opacity: 1; stroke-width: 2px;"/></g><g class="legendsymbols"><g class="legendpoints"/></g></g><rect class="legendtoggle" pointer-events="all" x="0" y="-9.5" width="112.046875" height="19" style="cursor: pointer; fill: rgb(0, 0, 0); fill-opacity: 0;"/></g><g class="traces" transform="translate(0, 33.5)" style="opacity: 1;"><text class="legendtext user-select-none" text-anchor="start" x="40" y="4.680000000000001" style="font-family: 'Open Sans', verdana, arial, sans-serif; font-size: 12px; fill: rgb(42, 63, 95); fill-opacity: 1; white-space: pre;">Buy and Hold</text><g class="layers" style="opacity: 1;"><g class="legendfill"/><g class="legendlines"><path class="js-line" d="M5,0h30" style="fill: none; stroke: rgb(239, 85, 59); stroke-opacity: 1; stroke-width: 2px;"/></g><g class="legendsymbols"><g class="legendpoints"/></g></g><rect class="legendtoggle" pointer-events="all" x="0" y="-9.5" width="112.046875" height="19" style="cursor: pointer; fill: rgb(0, 0, 0); fill-opacity: 0;"/></g><g class="traces" transform="translate(0, 52.5)" style="opacity: 1;"><text class="legendtext user-select-none" text-anchor="start" x="40" y="4.680000000000001" style="font-family: 'Open Sans', verdana, arial, sans-serif; font-size: 12px; fill: rgb(42, 63, 95); fill-opacity: 1; white-space: pre;">CRP</text><g class="layers" style="opacity: 1;"><g class="legendfill"/><g class="legendlines"><path class="js-line" d="M5,0h30" style="fill: none; stroke: rgb(0, 204, 150); stroke-opacity: 1; stroke-width: 2px;"/></g><g class="legendsymbols"><g class="legendpoints"/></g></g><rect class="legendtoggle" pointer-events="all" x="0" y="-9.5" width="112.046875" height="19" style="cursor: pointer; fill: rgb(0, 0, 0); fill-opacity: 0;"/></g><g class="traces" transform="translate(0, 71.5)" style="opacity: 1;"><text class="legendtext user-select-none" text-anchor="start" x="40" y="4.680000000000001" style="font-family: 'Open Sans', verdana, arial, sans-serif; font-size: 12px; fill: rgb(42, 63, 95); fill-opacity: 1; white-space: pre;">BCRP</text><g class="layers" style="opacity: 1;"><g class="legendfill"/><g class="legendlines"><path class="js-line" d="M5,0h30" style="fill: none; stroke: rgb(171, 99, 250); stroke-opacity: 1; stroke-width: 2px;"/></g><g class="legendsymbols"><g class="legendpoints"/></g></g><rect class="legendtoggle" pointer-events="all" x="0" y="-9.5" width="112.046875" height="19" style="cursor: pointer; fill: rgb(0, 0, 0); fill-opacity: 0;"/></g></g></g><rect class="scrollbar" rx="20" ry="3" width="0" height="0" x="0" y="0" style="fill: rgb(128, 139, 164); fill-opacity: 1;"/></g><g class="g-gtitle"><text class="gtitle" x="35" y="50" text-anchor="start" dy="0em" style="font-family: 'Open Sans', verdana, arial, sans-serif; font-size: 17px; fill: rgb(42, 63, 95); opacity: 1; font-weight: normal; white-space: pre;">What I could have made if I all ined ntar</text></g><g class="g-xtitle"><text class="xtitle" x="320" y="410.8" text-anchor="middle" style="font-family: 'Open Sans', verdana, arial, sans-serif; font-size: 14px; fill: rgb(42, 63, 95); opacity: 1; font-weight: normal; white-space: pre;">Date</text></g><g class="g-ytitle"><text class="ytitle" transform="rotate(-90,47.5125,235)" x="47.5125" y="235" text-anchor="middle" style="font-family: 'Open Sans', verdana, arial, sans-serif; font-size: 14px; fill: rgb(42, 63, 95); opacity: 1; font-weight: normal; white-space: pre;">Relative Returns</text></g></g></svg>