<svg class="main-svg" xmlns="http://www.w3.org/2000/svg" xmlns:xlink="http://www.w3.org/1999/xlink" width="700" height="450" viewBox="0 0 700 450"><rect x="0" y="0" width="700" height="450" style="fill: rgb(255, 255, 255); fill-opacity: 1;"/><defs id="defs-e39951"><g class="clips"><clipPath id="clipe39951xyplot" class="plotclip"><rect width="480" height="270"/></clipPath><clipPath class="axesclip" id="clipe39951x"><rect x="80" y="0" width="480" height="450"/></clipPath><clipPath class="axesclip" id="clipe39951y"><rect x="0" y="100" width="700" height="270"/></clipPath><clipPath class="axesclip" id="clipe39951xy"><rect x="80" y="100" width="480" height="270"/></clipPath></g><g class="gradients"/></defs><g class="bglayer"><rect class="bg" x="80" y="100" width="480" height="270" style="fill: rgb(229, 236, 246); fill-opacity: 1; stroke-width: 0;"/></g><g class="layer-below"><g class="imagelayer"/><g class="shapelayer"/></g><g class="cartesianlayer"><g class="subplot xy"><g class="layer-subplot"><g class="shapelayer"/><g class="imagelayer"/></g><g class="gridlayer"><g class="x"><path class="xgrid crisp" transform="translate(120.6,0)" d="M0,100v270" style="stroke: rgb(255, 255, 255); stroke-opacity: 1; stroke-width: 1px;"/><path class="xgrid crisp" transform="translate(210.51,0)" d="M0,100v270" style="stroke: rgb(255, 255, 255); stroke-opacity: 1; stroke-width: 1px;"/><path class="xgrid crisp" transform="translate(298.97,0)" d="M0,100v270" style="stroke: rgb(255, 255, 255); stroke-opacity: 1; stroke-width: 1px;"/><path class="xgrid crisp" transform="translate(387.43,0)" d="M0,100v270" style="stroke: rgb(255, 255, 255); stroke-opacity: 1; stroke-width: 1px;"/><path class="xgrid crisp" transform="translate(474.44,0)" d="M0,100v270" style="stroke: rgb(255, 255, 255); stroke-opacity: 1; stroke-width: 1px;"/></g><g class="y"><path class="ygrid crisp" transform="translate(0,327)" d="M80,0h480" style="stroke: rgb(255, 255, 255); stroke-opacity: 1; stroke-width: 1px;"/><path class="ygrid crisp" transform="translate(0,275.45)" d="M80,0h480" style="stroke: rgb(255, 255, 255); stroke-opacity: 1; stroke-width: 1px;"/><path class="ygrid crisp" transform="translate(0,223.9)" d="M80,0h480" style="stroke: rgb(255, 255, 255); stroke-opacity: 1; stroke-width: 1px;"/><path class="ygrid crisp" transform="translate(0,172.36)" d="M80,0h480" style="stroke: rgb(255, 255, 255); stroke-opacity: 1; stroke-width: 1px;"/><path class="ygrid crisp" transform="translate(0,120.81)" d="M80,0h480" style="stroke: rgb(255, 255, 255); stroke-opacity: 1; stroke-width: 1px;"/></g></g><g class="zerolinelayer"/><path class="xlines-below"/><path class="ylines-below"/><g class="overlines-below"/><g class="xaxislayer-below"/><g class="yaxislayer-below"/><g class="overaxes-below"/><g class="plot" transform="translate(80, 100)" clip-path="url('#clipe39951xyplot')"><g class="scatterlayer mlayer"><g class="trace scatter tracec91549" style="stroke-miterlimit: 2; opacity: 1;"><g class="fills"/><g class="errorbars"/><g class="lines"><path class="js-line" d="M0,227L2.9,227.57L4.35,227.82L5.8,228.14L10.15,224.71L11.6,226.29L13.05,222.42L14.5,223.56L15.95,223L20.3,226.32L21.75,222.55L23.2,222.42L24.65,225.01L26.1,226.21L30.45,225.94L31.9,224.4L33.35,225.55L34.8,224.87L36.25,225.48L40.6,222.7L42.05,225.28L43.5,226.2L44.95,226.2L46.4,224.02L50.76,224.09L53.66,227L55.11,226.4L56.56,221.27L60.91,222.44L62.36,223L63.81,227.69L66.71,225.68L71.06,227.65L72.51,229.52L73.96,214.29L75.41,209.82L76.86,213.82L82.66,210.67L84.11,210.96L85.56,202.48L87.01,206.38L91.36,205.46L92.81,209.54L95.71,213.25L97.16,213.71L101.51,213.48L102.96,214.17L104.41,216.8L105.86,210.96L107.31,214.4L111.66,218.05L114.56,221.27L116.01,220.7L117.46,220.13L121.81,221.84L123.26,218.73L124.71,220.35L133.41,225.28L134.86,223.73L137.76,223.49L142.11,225.28L143.56,225.28L145.02,226.87L146.47,228.58L147.92,226.07L156.62,224.71L158.07,223.28L162.42,222.99L163.87,221.24L165.32,222.42L166.77,221.27L168.22,221.27L172.57,223.45L175.47,222.42L176.92,222.23L178.37,219.44L182.72,220.76L185.62,203.46L187.07,208.12L188.52,198.45L192.87,197.22L194.32,198.36L195.77,197.15L198.67,193.49L203.02,192.63L204.47,192.86L205.92,194.14L207.37,199.33L208.82,200.79L213.17,194.92L214.62,181.18L216.07,163.77L217.52,135.36L218.97,145.48L223.32,155.98L224.77,154.06L226.22,149.1L227.67,153.69L229.12,150.25L233.47,142.23L234.92,129.63L236.37,105.58L237.82,99.28L239.27,116.58L243.63,78.08L245.08,36.85L246.53,83.81L247.98,83.81L249.43,67.77L253.78,88.39L255.23,120.81L256.68,118.84L258.13,118.84L259.58,112.45L263.93,106.72L265.38,98.7L266.83,98.78L269.73,119.32L274.08,118.35L275.53,125.23L276.98,126.19L278.43,138.79L279.88,129.93L284.23,122.76L285.68,122.13L287.13,129.63L288.58,119.32L290.03,104.43L294.38,117.03L295.83,112.56L298.73,100.99L300.18,110.16L304.53,115.88L305.98,112.45L308.88,120.84L310.33,127.17L314.68,137.65L316.13,112.45L317.58,111.69L319.03,117.03L320.48,119.06L324.83,125.05L326.28,119.83L330.63,49.45L334.98,49.45L337.89,15.08L339.34,29.97L340.79,43.72L345.14,75.79L348.04,26.54L349.49,13.5L356.74,56.32L358.19,66.63L359.64,73.5L361.09,73.5L365.44,130.61L366.89,117.25L368.34,122.76L369.79,153.19L371.24,153.19L377.04,125.05L378.49,109.01L379.94,117.03L381.39,110.16L385.74,115.88L387.19,122.76L388.64,137.99L390.09,165.85L391.54,158.59L397.34,141.37L398.79,146.81L400.24,152.48L401.69,165.14L406.04,175.86L407.49,169.37L410.39,184.27L411.84,182.32L416.19,194.56L417.64,196.02L419.09,211.6L420.54,197.6L421.99,205.73L426.34,202.47L427.79,186.02L429.24,182.32L430.69,177.93L432.15,181.41L437.95,189.21L439.4,196.07L440.85,194.87L442.3,190.57L446.65,185.76L448.1,179.02L449.55,170.76L451,150L456.8,135.68L458.25,125.05L461.15,142.23L462.6,130.78L466.95,133.07L468.4,143.38L469.85,151.97L471.3,142.8L472.75,145.67L477.1,150.25L478.55,139.94L480,141.09" style="vector-effect: non-scaling-stroke; fill: none; stroke: rgb(99, 110, 250); stroke-opacity: 1; stroke-width: 2px; opacity: 1;"/></g><g class="points"/><g class="text"/></g><g class="trace scatter tracebcf52f" style="stroke-miterlimit: 2; opacity: 1;"><g class="fills"/><g class="errorbars"/><g class="lines"><path class="js-line" d="M0,227L1.45,224.54L2.9,225.33L4.35,226.26L5.8,226.26L10.15,223.5L11.6,224.83L13.05,222.89L14.5,224.1L15.95,223.69L20.3,225.27L21.75,223.44L23.2,223.91L26.1,226.58L30.45,225.67L34.8,224.33L36.25,224.58L40.6,223.19L42.05,225.2L44.95,225.63L46.4,224.92L52.21,226.22L53.66,227L55.11,227.42L56.56,226.35L62.36,225.72L63.81,227.23L65.26,228.25L66.71,228.26L72.51,230.66L73.96,223.45L75.41,221.37L76.86,223.62L84.11,222.72L85.56,219.71L87.01,220.03L91.36,219.57L92.81,219.85L94.26,221.53L97.16,223.11L101.51,222.75L102.96,222.78L104.41,226.02L105.86,224.35L107.31,225.32L116.01,229.01L117.46,229.23L121.81,229.66L123.26,228.85L127.61,230.57L133.41,231.67L136.31,230.33L137.76,229.58L142.11,230.76L143.56,229.86L145.02,229.96L146.47,232.84L147.92,231.27L152.27,232.5L156.62,233.37L158.07,233.08L163.87,233.07L165.32,233.56L166.77,233.01L168.22,233.55L174.02,236.08L175.47,235.62L178.37,233.38L182.72,234.95L185.62,226.38L187.07,230.07L188.52,225.5L192.87,224.89L195.77,225.17L197.22,223.07L205.92,223.45L207.37,225.97L208.82,226.33L213.17,223.9L216.07,208.46L217.52,194.33L218.97,199.48L223.32,204.64L226.22,200.67L227.67,203.52L229.12,200.95L233.47,197.61L234.92,191.5L236.37,179.52L237.82,177.2L239.27,187.97L243.63,170.29L245.08,149.38L246.53,171.82L247.98,170.11L249.43,163.59L253.78,174.57L255.23,191.1L256.68,189.71L258.13,189.39L259.58,186.62L263.93,184.02L265.38,179.88L266.83,179.95L268.28,186.34L269.73,190.35L274.08,189.2L275.53,193.01L276.98,193.76L278.43,199.47L279.88,194.96L284.23,191.8L285.68,192.1L287.13,196.47L288.58,190.99L290.03,183.6L294.38,190.7L295.83,188.55L298.73,182.76L300.18,187.67L304.53,190.56L305.98,188.04L308.88,192.66L310.33,195.91L314.68,201.52L316.13,189.11L317.58,189.05L320.48,193.05L324.83,195.86L326.28,192.96L327.73,178.68L330.63,156.59L334.98,156.64L337.89,139.65L339.34,146.96L340.79,154.18L345.14,170.54L348.04,145.75L349.49,139.21L359.64,168.9L361.09,169.98L365.44,199.02L366.89,192.42L368.34,195.52L369.79,210.63L371.24,210.36L377.04,195.97L378.49,187.74L379.94,191.83L381.39,188.44L385.74,191.65L387.19,195.28L388.64,202.9L390.09,216.98L391.54,213.73L397.34,205.23L398.79,207.71L400.24,210.78L401.69,217.67L406.04,223.76L407.49,220.4L410.39,228.84L411.84,227.57L416.19,233.9L417.64,234.58L419.09,242.67L420.54,235.48L421.99,239.33L426.34,237.84L427.79,229.48L429.24,227.6L430.69,224.87L432.15,226.07L437.95,230.51L439.4,234.21L440.85,233.52L442.3,231.54L446.65,229.16L448.1,225.79L449.55,221.45L451,211.01L456.8,204.28L458.25,198.99L461.15,207.9L462.6,202.07L466.95,203.08L468.4,208.23L469.85,212.53L471.3,207.97L472.75,209.35L477.1,211.54L478.55,206.46L480,206.98" style="vector-effect: non-scaling-stroke; fill: none; stroke: rgb(239, 85, 59); stroke-opacity: 1; stroke-width: 2px; opacity: 1;"/></g><g class="points"/><g class="text"/></g><g class="trace scatter traced901f3" style="stroke-miterlimit: 2; opacity: 1;"><g class="fills"/><g class="errorbars"/><g class="lines"><path class="js-line" d="M0,227L1.45,224.54L2.9,225.32L5.8,226.24L10.15,223.45L11.6,224.78L13.05,222.79L14.5,224L15.95,223.59L20.3,225.15L21.75,223.28L23.2,223.75L24.65,225.32L26.1,226.41L30.45,225.49L34.8,224.13L36.25,224.39L40.6,222.97L42.05,224.98L44.95,225.41L46.4,224.68L52.21,225.99L53.66,226.75L55.11,227.18L56.56,226.18L62.36,225.34L63.81,226.7L65.26,227.7L66.71,227.75L72.51,230.11L73.96,223.01L75.41,221.27L76.86,223.24L84.11,222.66L85.56,220.72L87.01,219.93L91.36,219.56L92.81,218.89L94.26,220.58L97.16,222.13L101.51,221.74L102.96,221.65L104.41,225.13L105.86,224.16L107.31,224.54L116.01,227.89L117.46,228.26L124.71,228.55L126.16,229.05L127.61,229.53L133.41,230.25L134.86,230.09L136.31,228.87L137.76,227.97L142.11,229.14L143.56,228.08L145.02,228.03L146.47,231.12L147.92,229.57L156.62,232.25L158.07,232.18L162.42,231.89L163.87,232.64L168.22,233.27L172.57,235.24L174.02,236.36L175.47,235.79L176.92,233.99L178.37,233.51L182.72,235.32L184.17,232.01L185.62,229.19L187.07,233.03L188.52,230.36L192.87,229.99L194.32,229.78L195.77,230.54L197.22,228.01L198.67,229.06L205.92,229.18L207.37,230.55L213.17,229.4L214.62,225.87L217.52,213.93L218.97,216.42L223.32,218.67L224.77,216.87L226.22,215.7L227.67,218.15L229.12,215.27L233.47,214.87L234.92,212.39L236.37,207.19L237.82,208.25L239.27,217.98L243.63,215.76L245.08,208.15L246.53,210.57L247.98,204.36L253.78,212.38L255.23,219.21L258.13,216.36L259.58,216.55L263.93,216.41L265.38,214.48L266.83,214.59L268.28,217.31L269.73,218.78L274.08,216.27L276.98,219.95L278.43,220.37L279.88,218.27L284.23,218.21L285.68,220.18L287.13,223.76L290.03,218.2L294.38,223.45L295.83,223L298.73,221.07L300.18,223.87L304.53,224.91L305.98,221.11L308.88,224.21L314.68,228.87L316.13,225.13L317.58,226.35L319.03,225.46L320.48,228.75L324.83,228.88L326.28,226.8L327.73,218.46L329.18,212.86L330.63,210.62L336.44,210.51L337.89,206.75L339.34,208.11L340.79,211.73L345.14,217.84L346.59,211.65L349.49,207.98L350.94,209.71L355.29,210.91L356.74,210.15L359.64,214.77L361.09,219.62L365.44,230.17L366.89,228.34L368.34,230.78L369.79,234.95L371.24,233.84L377.04,227.52L378.49,223.92L379.94,225.57L381.39,224.68L385.74,227.18L388.64,231.55L390.09,236.91L391.54,237.06L395.89,234.63L398.79,234.35L400.24,236.37L401.69,240.99L406.04,246.02L407.49,244.48L408.94,247.48L410.39,251.6L411.84,249.78L416.19,252.68L417.64,252.64L419.09,256.5L420.54,253.34L426.34,253.6L427.79,250.28L429.24,249.58L430.69,246.19L432.15,244.18L436.5,247.36L437.95,247.91L439.4,250.31L442.3,249.72L446.65,249.06L448.1,247.99L449.55,245.63L451,242.19L456.8,242.55L458.25,241.38L459.7,243.41L461.15,245.58L462.6,243.49L466.95,242.86L468.4,244.12L469.85,245.21L471.3,244.17L477.1,244.12L478.55,243.22L480,243.02" style="vector-effect: non-scaling-stroke; fill: none; stroke: rgb(0, 204, 150); stroke-opacity: 1; stroke-width: 2px; opacity: 1;"/></g><g class="points"/><g class="text"/></g><g class="trace scatter trace2cd24b" style="stroke-miterlimit: 2; opacity: 1;"><g class="fills"/><g class="errorbars"/><g class="lines"><path class="js-line" d="M0,227L2.9,227.57L4.35,227.82L5.8,228.14L10.15,224.71L11.6,226.29L13.05,222.42L14.5,223.56L15.95,223L20.3,226.32L21.75,222.55L23.2,222.42L24.65,225.01L26.1,226.21L30.45,225.94L31.9,224.4L33.35,225.55L34.8,224.87L36.25,225.48L40.6,222.7L42.05,225.28L43.5,226.2L44.95,226.2L46.4,224.02L50.76,224.09L53.66,227L55.11,226.4L56.56,221.27L60.91,222.44L62.36,223L63.81,227.69L66.71,225.68L71.06,227.65L72.51,229.52L73.96,214.29L75.41,209.82L76.86,213.82L82.66,210.67L84.11,210.96L85.56,202.48L87.01,206.38L91.36,205.46L92.81,209.54L95.71,213.25L97.16,213.71L101.51,213.48L102.96,214.17L104.41,216.8L105.86,210.96L107.31,214.4L111.66,218.05L114.56,221.27L116.01,220.7L117.46,220.13L121.81,221.84L123.26,218.73L124.71,220.35L133.41,225.28L134.86,223.73L137.76,223.49L142.11,225.28L143.56,225.28L145.02,226.87L146.47,228.58L147.92,226.07L156.62,224.71L158.07,223.28L162.42,222.99L163.87,221.24L165.32,222.42L166.77,221.27L168.22,221.27L172.57,223.45L175.47,222.42L176.92,222.23L178.37,219.44L182.72,220.76L185.62,203.46L187.07,208.12L188.52,198.45L192.87,197.22L194.32,198.36L195.77,197.15L198.67,193.49L203.02,192.63L204.47,192.86L205.92,194.14L207.37,199.33L208.82,200.79L213.17,194.92L214.62,181.18L216.07,163.77L217.52,135.36L218.97,145.48L223.32,155.98L224.77,154.06L226.22,149.1L227.67,153.69L229.12,150.25L233.47,142.23L234.92,129.63L236.37,105.58L237.82,99.28L239.27,116.58L243.63,78.08L245.08,36.85L246.53,83.81L247.98,83.81L249.43,67.77L253.78,88.39L255.23,120.81L256.68,118.84L258.13,118.84L259.58,112.45L263.93,106.72L265.38,98.7L266.83,98.78L269.73,119.32L274.08,118.35L275.53,125.23L276.98,126.19L278.43,138.79L279.88,129.93L284.23,122.76L285.68,122.13L287.13,129.63L288.58,119.32L290.03,104.43L294.38,117.03L295.83,112.56L298.73,100.99L300.18,110.16L304.53,115.88L305.98,112.45L308.88,120.84L310.33,127.17L314.68,137.65L316.13,112.45L317.58,111.69L319.03,117.03L320.48,119.06L324.83,125.05L326.28,119.83L330.63,49.45L334.98,49.45L337.89,15.08L339.34,29.97L340.79,43.72L345.14,75.79L348.04,26.54L349.49,13.5L356.74,56.32L358.19,66.63L359.64,73.5L361.09,73.5L365.44,130.61L366.89,117.25L368.34,122.76L369.79,153.19L371.24,153.19L377.04,125.05L378.49,109.01L379.94,117.03L381.39,110.16L385.74,115.88L387.19,122.76L388.64,137.99L390.09,165.85L391.54,158.59L397.34,141.37L398.79,146.81L400.24,152.48L401.69,165.14L406.04,175.86L407.49,169.37L410.39,184.27L411.84,182.32L416.19,194.56L417.64,196.02L419.09,211.6L420.54,197.6L421.99,205.73L426.34,202.47L427.79,186.02L429.24,182.32L430.69,177.93L432.15,181.41L437.95,189.21L439.4,196.07L440.85,194.87L442.3,190.57L446.65,185.76L448.1,179.02L449.55,170.76L451,150L456.8,135.68L458.25,125.05L461.15,142.23L462.6,130.78L466.95,133.07L468.4,143.38L469.85,151.97L471.3,142.8L472.75,145.67L477.1,150.25L478.55,139.94L480,141.09" style="vector-effect: non-scaling-stroke; fill: none; stroke: rgb(171, 99, 250); stroke-opacity: 1; stroke-width: 2px; opacity: 1;"/></g><g class="points"/><g class="text"/></g></g></g><g class="overplot"/><path class="xlines-above crisp" d="M0,0" style="fill: none;"/><path class="ylines-above crisp" d="M0,0" style="fill: none;"/><g class="overlines-above"/><g class="xaxislayer-above"><g class="xtick"><text text-anchor="middle" x="0" y="383" transform="translate(120.6,0)" style="font-family: 'Open Sans', verdana, arial, sans-serif; font-size: 12px; fill: rgb(42, 63, 95); fill-opacity: 1; white-space: pre;">Jul 2019</text></g><g class="xtick"><text text-anchor="middle" x="0" y="383" transform="translate(210.51,0)" style="font-family: 'Open Sans', verdana, arial, sans-serif; font-size: 12px; fill: rgb(42, 63, 95); fill-opacity: 1; white-space: pre;">Sep 2019</text></g><g class="xtick"><text text-anchor="middle" x="0" y="383" transform="translate(298.97,0)" style="font-family: 'Open Sans', verdana, arial, sans-serif; font-size: 12px; fill: rgb(42, 63, 95); fill-opacity: 1; white-space: pre;">Nov 2019</text></g><g class="xtick"><text text-anchor="middle" x="0" y="383" transform="translate(387.43,0)" style="font-family: 'Open Sans', verdana, arial, sans-serif; font-size: 12px; fill: rgb(42, 63, 95); fill-opacity: 1; white-space: pre;">Jan 2020</text></g><g class="xtick"><text text-anchor="middle" x="0" y="383" transform="translate(474.44,0)" style="font-family: 'Open Sans', verdana, arial, sans-serif; font-size: 12px; fill: rgb(42, 63, 95); fill-opacity: 1; white-space: pre;">Mar 2020</text></g></g><g class="yaxislayer-above"><g class="ytick"><text text-anchor="end" x="79" y="4.199999999999999" transform="translate(0,327)" style="font-family: 'Open Sans', verdana, arial, sans-serif; font-size: 12px; fill: rgb(42, 63, 95); fill-opacity: 1; white-space: pre;">1</text></g><g class="ytick"><text text-anchor="end" x="79" y="4.199999999999999" transform="translate(0,275.45)" style="font-family: 'Open Sans', verdana, arial, sans-serif; font-size: 12px; fill: rgb(42, 63, 95); fill-opacity: 1; white-space: pre;">2</text></g><g class="ytick"><text text-anchor="end" x="79" y="4.199999999999999" transform="translate(0,223.9)" style="font-family: 'Open Sans', verdana, arial, sans-serif; font-size: 12px; fill: rgb(42, 63, 95); fill-opacity: 1; white-space: pre;">3</text></g><g class="ytick"><text text-anchor="end" x="79" y="4.199999999999999" transform="translate(0,172.36)" style="font-family: 'Open Sans', verdana, arial, sans-serif; font-size: 12px; fill: rgb(42, 63, 95); fill-opacity: 1; white-space: pre;">4</text></g><g class="ytick"><text text-anchor="end" x="79" y="4.199999999999999" transform="translate(0,120.81)" style="font-family: 'Open Sans', verdana, arial, sans-serif; font-size: 12px; fill: rgb(42, 63, 95); fill-opacity: 1; white-space: pre;">5</text></g></g><g class="overaxes-above"/></g></g><g class="polarlayer"/><g class="ternarylayer"/><g class="geolayer"/><g class="funnelarealayer"/><g class="pielayer"/><g class="treemaplayer"/><g class="sunburstlayer"/><g class="glimages"/><defs id="topdefs-e39951"><g class="clips"/><clipPath id="legende39951"><rect width="118" height="86" x="0" y="0"/></clipPath></defs><g class="layer-above"><g class="imagelayer"/><g class="shapelayer"/></g><g class="infolayer"><g class="legend" pointer-events="all" transform="translate(569.6, 100)"><rect class="bg" shape-rendering="crispEdges" style="stroke: rgb(68, 68, 68); stroke-opacity: 1; fill: rgb(255, 255, 255); fill-opacity: 1; stroke-width: 0px;" width="118" height="86" x="0" y="0"/><g class="scrollbox" transform="translate(0, 0)" clip-path="url('#legende39951')"><g class="groups"><g class="traces" transform="translate(0, 14.5)" style="opacity: 1;"><text class="legendtext user-select-none" text-anchor="start" x="40" y="4.680000000000001" style="font-family: 'Open Sans', verdana, arial, sans-serif; font-size: 12px; fill: rgb(42, 63, 95); fill-opacity: 1; white-space: pre;">Best Stock</text><g class="layers" style="opacity: 1;"><g class="legendfill"/><g class="legendlines"><path class="js-line" d="M5,0h30" style="fill: none; stroke: rgb(99, 110, 250); stroke-opacity: 1; stroke-width: 2px;"/></g><g class="legendsymbols"><g class="legendpoints"/></g></g><rect class="legendtoggle" pointer-events="all" x="0" y="-9.5" width="112.046875" height="19" style="cursor: pointer; fill: rgb(0, 0, 0); fill-opacity: 0;"/></g><g class="traces" transform="translate(0, 33.5)" style="opacity: 1;"><text class="legendtext user-select-none" text-anchor="start" x="40" y="4.680000000000001" style="font-family: 'Open Sans', verdana, arial, sans-serif; font-size: 12px; fill: rgb(42, 63, 95); fill-opacity: 1; white-space: pre;">Buy and Hold</text><g class="layers" style="opacity: 1;"><g class="legendfill"/><g class="legendlines"><path class="js-line" d="M5,0h30" style="fill: none; stroke: rgb(239, 85, 59); stroke-opacity: 1; stroke-width: 2px;"/></g><g class="legendsymbols"><g class="legendpoints"/></g></g><rect class="legendtoggle" pointer-events="all" x="0" y="-9.5" width="112.046875" height="19" style="cursor: pointer; fill: rgb(0, 0, 0); fill-opacity: 0;"/></g><g class="traces" transform="translate(0, 52.5)" style="opacity: 1;"><text class="legendtext user-select-none" text-anchor="start" x="40" y="4.680000000000001" style="font-family: 'Open Sans', verdana, arial, sans-serif; font-size: 12px; fill: rgb(42, 63, 95); fill-opacity: 1; white-space: pre;">CRP</text><g class="layers" style="opacity: 1;"><g class="legendfill"/><g class="legendlines"><path class="js-line" d="M5,0h30" style="fill: none; stroke: rgb(0, 204, 150); stroke-opacity: 1; stroke-width: 2px;"/></g><g class="legendsymbols"><g class="legendpoints"/></g></g><rect class="legendtoggle" pointer-events="all" x="0" y="-9.5" width="112.046875" height="19" style="cursor: pointer; fill: rgb(0, 0, 0); fill-opacity: 0;"/></g><g class="traces" transform="translate(0, 71.5)" style="opacity: 1;"><text class="legendtext user-select-none" text-anchor="start" x="40" y="4.680000000000001" style="font-family: 'Open Sans', verdana, arial, sans-serif; font-size: 12px; fill: rgb(42, 63, 95); fill-opacity: 1; white-space: pre;">BCRP</text><g class="layers" style="opacity: 1;"><g class="legendfill"/><g class="legendlines"><path class="js-line" d="M5,0h30" style="fill: none; stroke: rgb(171, 99, 250); stroke-opacity: 1; stroke-width: 2px;"/></g><g class="legendsymbols"><g class="legendpoints"/></g></g><rect class="legendtoggle" pointer-events="all" x="0" y="-9.5" width="112.046875" height="19" style="cursor: pointer; fill: rgb(0, 0, 0); fill-opacity: 0;"/></g></g></g><rect class="scrollbar" rx="20" ry="3" width="0" height="0" style="fill: rgb(128, 139, 164); fill-opacity: 1;" x="0" y="0"/></g><g class="g-gtitle"><text class="gtitle" x="35" y="50" text-anchor="start" dy="0em" style="font-family: 'Open Sans', verdana, arial, sans-serif; font-size: 17px; fill: rgb(42, 63, 95); opacity: 1; font-weight: normal; white-space: pre;">Benchmarks on NYSE</text></g><g class="g-xtitle"><text class="xtitle" x="320" y="410.8" text-anchor="middle" style="font-family: 'Open Sans', verdana, arial, sans-serif; font-size: 14px; fill: rgb(42, 63, 95); opacity: 1; font-weight: normal; white-space: pre;">Date</text></g><g class="g-ytitle"><text class="ytitle" transform="rotate(-90,47.5125,235)" x="47.5125" y="235" text-anchor="middle" style="font-family: 'Open Sans', verdana, arial, sans-serif; font-size: 14px; fill: rgb(42, 63, 95); opacity: 1; font-weight: normal; white-space: pre;">Relative Returns</text></g></g></svg>