<svg class="main-svg" xmlns="http://www.w3.org/2000/svg" xmlns:xlink="http://www.w3.org/1999/xlink" width="700" height="450" viewBox="0 0 700 450"><rect x="0" y="0" width="700" height="450" style="fill: rgb(255, 255, 255); fill-opacity: 1;"/><defs id="defs-bcd80e"><g class="clips"><clipPath id="clipbcd80exyplot" class="plotclip"><rect width="480" height="270"/></clipPath><clipPath class="axesclip" id="clipbcd80ex"><rect x="80" y="0" width="480" height="450"/></clipPath><clipPath class="axesclip" id="clipbcd80ey"><rect x="0" y="100" width="700" height="270"/></clipPath><clipPath class="axesclip" id="clipbcd80exy"><rect x="80" y="100" width="480" height="270"/></clipPath></g><g class="gradients"/></defs><g class="bglayer"><rect class="bg" x="80" y="100" width="480" height="270" style="fill: rgb(229, 236, 246); fill-opacity: 1; stroke-width: 0;"/></g><g class="layer-below"><g class="imagelayer"/><g class="shapelayer"/></g><g class="cartesianlayer"><g class="subplot xy"><g class="layer-subplot"><g class="shapelayer"/><g class="imagelayer"/></g><g class="gridlayer"><g class="x"><path class="xgrid crisp" transform="translate(95.65,0)" d="M0,100v270" style="stroke: rgb(255, 255, 255); stroke-opacity: 1; stroke-width: 1px;"/><path class="xgrid crisp" transform="translate(168.7,0)" d="M0,100v270" style="stroke: rgb(255, 255, 255); stroke-opacity: 1; stroke-width: 1px;"/><path class="xgrid crisp" transform="translate(241.74,0)" d="M0,100v270" style="stroke: rgb(255, 255, 255); stroke-opacity: 1; stroke-width: 1px;"/><path class="xgrid crisp" transform="translate(314.78,0)" d="M0,100v270" style="stroke: rgb(255, 255, 255); stroke-opacity: 1; stroke-width: 1px;"/><path class="xgrid crisp" transform="translate(387.83,0)" d="M0,100v270" style="stroke: rgb(255, 255, 255); stroke-opacity: 1; stroke-width: 1px;"/><path class="xgrid crisp" transform="translate(460.87,0)" d="M0,100v270" style="stroke: rgb(255, 255, 255); stroke-opacity: 1; stroke-width: 1px;"/><path class="xgrid crisp" transform="translate(533.9100000000001,0)" d="M0,100v270" style="stroke: rgb(255, 255, 255); stroke-opacity: 1; stroke-width: 1px;"/></g><g class="y"><path class="ygrid crisp" transform="translate(0,360.96)" d="M80,0h480" style="stroke: rgb(255, 255, 255); stroke-opacity: 1; stroke-width: 1px;"/><path class="ygrid crisp" transform="translate(0,280.24)" d="M80,0h480" style="stroke: rgb(255, 255, 255); stroke-opacity: 1; stroke-width: 1px;"/><path class="ygrid crisp" transform="translate(0,199.51999999999998)" d="M80,0h480" style="stroke: rgb(255, 255, 255); stroke-opacity: 1; stroke-width: 1px;"/><path class="ygrid crisp" transform="translate(0,118.8)" d="M80,0h480" style="stroke: rgb(255, 255, 255); stroke-opacity: 1; stroke-width: 1px;"/></g></g><g class="zerolinelayer"/><path class="xlines-below"/><path class="ylines-below"/><g class="overlines-below"/><g class="xaxislayer-below"/><g class="yaxislayer-below"/><g class="overaxes-below"/><g class="plot" transform="translate(80, 100)" clip-path="url('#clipbcd80exyplot')"><g class="scatterlayer mlayer"><g class="trace scatter tracec4b9ec" style="stroke-miterlimit: 2; opacity: 1;"><g class="fills"/><g class="errorbars"/><g class="lines"><path class="js-line" d="M0,180.24L5.22,169.85L20.87,149.7L26.09,145.18L31.3,152.98L36.52,161.1L41.74,179.23L57.39,194.59L62.61,185.29L67.83,194L73.04,206.64L78.26,203.85L93.91,221.37L99.13,223.47L104.35,245.79L109.57,225.74L114.78,237.37L130.43,232.71L135.65,209.15L146.09,197.56L151.3,202.53L166.96,212.08L172.17,213.71L177.39,223.54L182.61,221.82L187.83,215.66L203.48,208.77L208.7,199.12L213.91,187.29L219.13,157.55L240,137.03L245.22,121.8L250.43,133.29L255.65,146.41L260.87,130.01L276.52,133.29L281.74,148.06L286.96,160.36L292.17,147.24L297.39,151.34L313.04,157.9L318.26,143.13L323.48,144.77L328.7,145.53L333.91,156.24L349.57,144.77L354.78,145.25L360,152.16L365.22,133.29L370.43,120.16L386.09,84.06L391.3,38.11L396.52,13.5L401.74,23.35L406.96,52.88L422.61,54.52L427.83,62.73L433.04,69.29L438.26,91.46L443.48,77.5L459.13,77.5L464.35,84.13L469.57,79.79L474.78,92.48L480,87.34" style="vector-effect: non-scaling-stroke; fill: none; stroke: rgb(99, 110, 250); stroke-opacity: 1; stroke-width: 2px; opacity: 1;"/></g><g class="points"/><g class="text"/></g><g class="trace scatter traceb9caa8" style="stroke-miterlimit: 2; opacity: 1;"><g class="fills"/><g class="errorbars"/><g class="lines"><path class="js-line" d="M0,180.24L5.22,184.33L20.87,176.93L26.09,180.99L31.3,177.89L36.52,176.65L41.74,186.92L57.39,210.14L62.61,208.14L67.83,216.15L73.04,237.01L78.26,229.64L93.91,244.83L99.13,247.28L104.35,256.5L109.57,244.86L114.78,242.42L130.43,245.85L135.65,237.91L140.87,232.66L146.09,230.04L151.3,232.31L166.96,234.63L172.17,234.21L177.39,244.16L182.61,237.83L187.83,239.42L203.48,233.75L208.7,229.9L213.91,226.58L219.13,214.81L240,220.04L245.22,215.59L255.65,219.29L260.87,212.44L276.52,208.41L281.74,212.25L286.96,211.68L292.17,207.59L297.39,207.87L313.04,199.03L323.48,182.95L328.7,185.92L333.91,194.14L349.57,195.21L354.78,195.72L360,190.69L365.22,181.56L370.43,177.01L386.09,185.72L391.3,180.76L396.52,184.8L401.74,183.1L422.61,183.25L427.83,173.43L433.04,173.76L438.26,172.26L443.48,169.84L459.13,167.86L464.35,170.45L469.57,171.05L474.78,169.75L480,170.2" style="vector-effect: non-scaling-stroke; fill: none; stroke: rgb(239, 85, 59); stroke-opacity: 1; stroke-width: 2px; opacity: 1;"/></g><g class="points"/><g class="text"/></g><g class="trace scatter traceb1be5d" style="stroke-miterlimit: 2; opacity: 1;"><g class="fills"/><g class="errorbars"/><g class="lines"><path class="js-line" d="M0,180.24L5.22,184.33L20.87,176.52L26.09,180.59L31.3,177.23L36.52,176.09L41.74,186.41L57.39,210.75L62.61,207.41L67.83,214.87L73.04,235.77L78.26,227.72L93.91,243.11L99.13,246.34L104.35,255.52L109.57,244.5L114.78,241.84L130.43,244.8L135.65,236.26L140.87,230.13L146.09,227.7L151.3,230.63L166.96,232.24L172.17,230.53L177.39,240.53L182.61,232.36L187.83,233.75L203.48,227.68L208.7,223L213.91,218.81L219.13,206.53L240,212.58L245.22,208.88L250.43,211.21L255.65,212.58L260.87,203.98L276.52,199.7L281.74,203.08L286.96,201.35L292.17,196.96L297.39,197.25L313.04,188.72L318.26,181.36L323.48,173.2L328.7,177.17L333.91,185.91L349.57,186.35L354.78,185.87L360,179.21L365.22,170.49L370.43,167.32L386.09,174.86L391.3,173.67L396.52,180.59L401.74,176.26L406.96,166.52L422.61,166.62L427.83,151.8L433.04,151.51L438.26,146.62L443.48,144.48L459.13,141.95L464.35,143.73L469.57,145.1L474.78,144.25L480,145.46" style="vector-effect: non-scaling-stroke; fill: none; stroke: rgb(0, 204, 150); stroke-opacity: 1; stroke-width: 2px; opacity: 1;"/></g><g class="points"/><g class="text"/></g><g class="trace scatter tracedb4dbe" style="stroke-miterlimit: 2; opacity: 1;"><g class="fills"/><g class="errorbars"/><g class="lines"><path class="js-line" d="M0,180.24L5.22,175.94L20.87,160.28L26.09,162.92L31.3,162.99L36.52,157.9L41.74,174.85L57.39,193.23L62.61,193.64L67.83,197.86L73.04,223.87L78.26,221.58L93.91,235.86L99.13,235.29L104.35,247.75L109.57,221.93L114.78,225.81L130.43,235.28L135.65,223.05L140.87,217.13L146.09,216.68L151.3,222.03L166.96,224.33L172.17,222.99L177.39,235.38L182.61,222.87L187.83,221.34L203.48,212.09L208.7,205.47L213.91,204.67L219.13,178.18L240,183.2L245.22,176.93L250.43,181.79L255.65,183.43L260.87,157.37L276.52,149.82L286.96,162L292.17,160.44L297.39,165.94L313.04,161.74L318.26,146.51L323.48,142.57L333.91,154.62L349.57,151.25L354.78,151.65L360,127L365.22,89.79L370.43,77.1L386.09,84.12L391.3,63.44L396.52,64.48L401.74,47.05L406.96,69.41L422.61,70.1L427.83,56.6L433.04,54.47L438.26,63.58L443.48,55.91L459.13,61.44L464.35,67.46L474.78,64.06L480,55.59" style="vector-effect: non-scaling-stroke; fill: none; stroke: rgb(171, 99, 250); stroke-opacity: 1; stroke-width: 2px; opacity: 1;"/></g><g class="points"/><g class="text"/></g></g></g><g class="overplot"/><path class="xlines-above crisp" d="M0,0" style="fill: none;"/><path class="ylines-above crisp" d="M0,0" style="fill: none;"/><g class="overlines-above"/><g class="xaxislayer-above"><g class="xtick"><text text-anchor="middle" x="0" y="383" transform="translate(95.65,0)" style="font-family: 'Open Sans', verdana, arial, sans-serif; font-size: 12px; fill: rgb(42, 63, 95); fill-opacity: 1; white-space: pre;"><tspan class="line" dy="0em" x="0" y="383">Mar 1</tspan><tspan class="line" dy="1.3em" x="0" y="383">2020</tspan></text></g><g class="xtick"><text text-anchor="middle" x="0" y="383" transform="translate(168.7,0)" style="font-family: 'Open Sans', verdana, arial, sans-serif; font-size: 12px; fill: rgb(42, 63, 95); fill-opacity: 1; white-space: pre;">Mar 15</text></g><g class="xtick"><text text-anchor="middle" x="0" y="383" transform="translate(241.74,0)" style="font-family: 'Open Sans', verdana, arial, sans-serif; font-size: 12px; fill: rgb(42, 63, 95); fill-opacity: 1; white-space: pre;">Mar 29</text></g><g class="xtick"><text text-anchor="middle" x="0" y="383" transform="translate(314.78,0)" style="font-family: 'Open Sans', verdana, arial, sans-serif; font-size: 12px; fill: rgb(42, 63, 95); fill-opacity: 1; white-space: pre;">Apr 12</text></g><g class="xtick"><text text-anchor="middle" x="0" y="383" transform="translate(387.83,0)" style="font-family: 'Open Sans', verdana, arial, sans-serif; font-size: 12px; fill: rgb(42, 63, 95); fill-opacity: 1; white-space: pre;">Apr 26</text></g><g class="xtick"><text text-anchor="middle" x="0" y="383" transform="translate(460.87,0)" style="font-family: 'Open Sans', verdana, arial, sans-serif; font-size: 12px; fill: rgb(42, 63, 95); fill-opacity: 1; white-space: pre;">May 10</text></g><g class="xtick"><text text-anchor="middle" x="0" y="383" transform="translate(533.9100000000001,0)" style="font-family: 'Open Sans', verdana, arial, sans-serif; font-size: 12px; fill: rgb(42, 63, 95); fill-opacity: 1; white-space: pre;">May 24</text></g></g><g class="yaxislayer-above"><g class="ytick"><text text-anchor="end" x="79" y="4.199999999999999" transform="translate(0,360.96)" style="font-family: 'Open Sans', verdana, arial, sans-serif; font-size: 12px; fill: rgb(42, 63, 95); fill-opacity: 1; white-space: pre;">0.5</text></g><g class="ytick"><text text-anchor="end" x="79" y="4.199999999999999" transform="translate(0,280.24)" style="font-family: 'Open Sans', verdana, arial, sans-serif; font-size: 12px; fill: rgb(42, 63, 95); fill-opacity: 1; white-space: pre;">1</text></g><g class="ytick"><text text-anchor="end" x="79" y="4.199999999999999" transform="translate(0,199.51999999999998)" style="font-family: 'Open Sans', verdana, arial, sans-serif; font-size: 12px; fill: rgb(42, 63, 95); fill-opacity: 1; white-space: pre;">1.5</text></g><g class="ytick"><text text-anchor="end" x="79" y="4.199999999999999" transform="translate(0,118.8)" style="font-family: 'Open Sans', verdana, arial, sans-serif; font-size: 12px; fill: rgb(42, 63, 95); fill-opacity: 1; white-space: pre;">2</text></g></g><g class="overaxes-above"/></g></g><g class="polarlayer"/><g class="ternarylayer"/><g class="geolayer"/><g class="funnelarealayer"/><g class="pielayer"/><g class="treemaplayer"/><g class="sunburstlayer"/><g class="glimages"/><defs id="topdefs-bcd80e"><g class="clips"/><clipPath id="legendbcd80e"><rect width="118" height="86" x="0" y="0"/></clipPath></defs><g class="layer-above"><g class="imagelayer"/><g class="shapelayer"/></g><g class="infolayer"><g class="legend" pointer-events="all" transform="translate(569.6, 100)"><rect class="bg" shape-rendering="crispEdges" width="118" height="86" x="0" y="0" style="stroke: rgb(68, 68, 68); stroke-opacity: 1; fill: rgb(255, 255, 255); fill-opacity: 1; stroke-width: 0px;"/><g class="scrollbox" transform="translate(0, 0)" clip-path="url('#legendbcd80e')"><g class="groups"><g class="traces" transform="translate(0, 14.5)" style="opacity: 1;"><text class="legendtext user-select-none" text-anchor="start" x="40" y="4.680000000000001" style="font-family: 'Open Sans', verdana, arial, sans-serif; font-size: 12px; fill: rgb(42, 63, 95); fill-opacity: 1; white-space: pre;">Best Stock</text><g class="layers" style="opacity: 1;"><g class="legendfill"/><g class="legendlines"><path class="js-line" d="M5,0h30" style="fill: none; stroke: rgb(99, 110, 250); stroke-opacity: 1; stroke-width: 2px;"/></g><g class="legendsymbols"><g class="legendpoints"/></g></g><rect class="legendtoggle" pointer-events="all" x="0" y="-9.5" width="112.046875" height="19" style="cursor: pointer; fill: rgb(0, 0, 0); fill-opacity: 0;"/></g><g class="traces" transform="translate(0, 33.5)" style="opacity: 1;"><text class="legendtext user-select-none" text-anchor="start" x="40" y="4.680000000000001" style="font-family: 'Open Sans', verdana, arial, sans-serif; font-size: 12px; fill: rgb(42, 63, 95); fill-opacity: 1; white-space: pre;">Buy and Hold</text><g class="layers" style="opacity: 1;"><g class="legendfill"/><g class="legendlines"><path class="js-line" d="M5,0h30" style="fill: none; stroke: rgb(239, 85, 59); stroke-opacity: 1; stroke-width: 2px;"/></g><g class="legendsymbols"><g class="legendpoints"/></g></g><rect class="legendtoggle" pointer-events="all" x="0" y="-9.5" width="112.046875" height="19" style="cursor: pointer; fill: rgb(0, 0, 0); fill-opacity: 0;"/></g><g class="traces" transform="translate(0, 52.5)" style="opacity: 1;"><text class="legendtext user-select-none" text-anchor="start" x="40" y="4.680000000000001" style="font-family: 'Open Sans', verdana, arial, sans-serif; font-size: 12px; fill: rgb(42, 63, 95); fill-opacity: 1; white-space: pre;">CRP</text><g class="layers" style="opacity: 1;"><g class="legendfill"/><g class="legendlines"><path class="js-line" d="M5,0h30" style="fill: none; stroke: rgb(0, 204, 150); stroke-opacity: 1; stroke-width: 2px;"/></g><g class="legendsymbols"><g class="legendpoints"/></g></g><rect class="legendtoggle" pointer-events="all" x="0" y="-9.5" width="112.046875" height="19" style="cursor: pointer; fill: rgb(0, 0, 0); fill-opacity: 0;"/></g><g class="traces" transform="translate(0, 71.5)" style="opacity: 1;"><text class="legendtext user-select-none" text-anchor="start" x="40" y="4.680000000000001" style="font-family: 'Open Sans', verdana, arial, sans-serif; font-size: 12px; fill: rgb(42, 63, 95); fill-opacity: 1; white-space: pre;">BCRP</text><g class="layers" style="opacity: 1;"><g class="legendfill"/><g class="legendlines"><path class="js-line" d="M5,0h30" style="fill: none; stroke: rgb(171, 99, 250); stroke-opacity: 1; stroke-width: 2px;"/></g><g class="legendsymbols"><g class="legendpoints"/></g></g><rect class="legendtoggle" pointer-events="all" x="0" y="-9.5" width="112.046875" height="19" style="cursor: pointer; fill: rgb(0, 0, 0); fill-opacity: 0;"/></g></g></g><rect class="scrollbar" rx="20" ry="3" width="0" height="0" x="0" y="0" style="fill: rgb(128, 139, 164); fill-opacity: 1;"/></g><g class="g-gtitle"><text class="gtitle" x="35" y="50" text-anchor="start" dy="0em" style="font-family: 'Open Sans', verdana, arial, sans-serif; font-size: 17px; fill: rgb(42, 63, 95); opacity: 1; font-weight: normal; white-space: pre;">Performance After Crash</text></g><g class="g-xtitle"><text class="xtitle" x="320" y="426.39375" text-anchor="middle" style="font-family: 'Open Sans', verdana, arial, sans-serif; font-size: 14px; fill: rgb(42, 63, 95); opacity: 1; font-weight: normal; white-space: pre;">Date</text></g><g class="g-ytitle"><text class="ytitle" transform="rotate(-90,37.5125,235)" x="37.5125" y="235" text-anchor="middle" style="font-family: 'Open Sans', verdana, arial, sans-serif; font-size: 14px; fill: rgb(42, 63, 95); opacity: 1; font-weight: normal; white-space: pre;">Relative Returns</text></g></g></svg>