<svg class="main-svg" xmlns="http://www.w3.org/2000/svg" xmlns:xlink="http://www.w3.org/1999/xlink" width="700" height="450" viewBox="0 0 700 450"><rect x="0" y="0" width="700" height="450" style="fill: rgb(255, 255, 255); fill-opacity: 1;"/><defs id="defs-5f3e99"><g class="clips"><clipPath id="clip5f3e99xyplot" class="plotclip"><rect width="480" height="270"/></clipPath><clipPath class="axesclip" id="clip5f3e99x"><rect x="80" y="0" width="480" height="450"/></clipPath><clipPath class="axesclip" id="clip5f3e99y"><rect x="0" y="100" width="700" height="270"/></clipPath><clipPath class="axesclip" id="clip5f3e99xy"><rect x="80" y="100" width="480" height="270"/></clipPath></g><g class="gradients"/></defs><g class="bglayer"><rect class="bg" x="80" y="100" width="480" height="270" style="fill: rgb(229, 236, 246); fill-opacity: 1; stroke-width: 0;"/></g><g class="layer-below"><g class="imagelayer"/><g class="shapelayer"/></g><g class="cartesianlayer"><g class="subplot xy"><g class="layer-subplot"><g class="shapelayer"/><g class="imagelayer"/></g><g class="gridlayer"><g class="x"><path class="xgrid crisp" transform="translate(83.2,0)" d="M0,100v270" style="stroke: rgb(255, 255, 255); stroke-opacity: 1; stroke-width: 1px;"/><path class="xgrid crisp" transform="translate(182.4,0)" d="M0,100v270" style="stroke: rgb(255, 255, 255); stroke-opacity: 1; stroke-width: 1px;"/><path class="xgrid crisp" transform="translate(278.4,0)" d="M0,100v270" style="stroke: rgb(255, 255, 255); stroke-opacity: 1; stroke-width: 1px;"/><path class="xgrid crisp" transform="translate(377.6,0)" d="M0,100v270" style="stroke: rgb(255, 255, 255); stroke-opacity: 1; stroke-width: 1px;"/><path class="xgrid crisp" transform="translate(476.8,0)" d="M0,100v270" style="stroke: rgb(255, 255, 255); stroke-opacity: 1; stroke-width: 1px;"/></g><g class="y"><path class="ygrid crisp" transform="translate(0,345.76)" d="M80,0h480" style="stroke: rgb(255, 255, 255); stroke-opacity: 1; stroke-width: 1px;"/><path class="ygrid crisp" transform="translate(0,284.81)" d="M80,0h480" style="stroke: rgb(255, 255, 255); stroke-opacity: 1; stroke-width: 1px;"/><path class="ygrid crisp" transform="translate(0,223.85)" d="M80,0h480" style="stroke: rgb(255, 255, 255); stroke-opacity: 1; stroke-width: 1px;"/><path class="ygrid crisp" transform="translate(0,162.9)" d="M80,0h480" style="stroke: rgb(255, 255, 255); stroke-opacity: 1; stroke-width: 1px;"/><path class="ygrid crisp" transform="translate(0,101.94)" d="M80,0h480" style="stroke: rgb(255, 255, 255); stroke-opacity: 1; stroke-width: 1px;"/></g></g><g class="zerolinelayer"/><path class="xlines-below"/><path class="ylines-below"/><g class="overlines-below"/><g class="xaxislayer-below"/><g class="yaxislayer-below"/><g class="overaxes-below"/><g class="plot" transform="translate(80, 100)" clip-path="url('#clip5f3e99xyplot')"><g class="scatterlayer mlayer"><g class="trace scatter trace37b366" style="stroke-miterlimit: 2; opacity: 1;"><g class="fills"/><g class="errorbars"/><g class="lines"><path class="js-line" d="M0,245.76L6.4,244.62L9.6,244.42L12.8,241.33L22.4,242.78L28.8,223.65L32,228.81L35.2,218.11L44.8,216.74L48,218.01L51.2,216.67L57.6,212.62L67.2,211.67L70.4,211.93L73.6,213.34L76.8,219.09L80,220.7L89.6,214.21L92.8,199L96,179.74L99.2,148.31L102.4,159.51L112,171.12L115.2,169L118.4,163.52L121.6,168.59L124.8,164.78L134.4,155.91L137.6,141.97L140.8,115.36L144,108.39L147.2,127.54L156.8,84.95L160,39.33L163.2,91.28L166.4,91.28L169.6,73.54L179.2,96.35L182.4,132.22L185.6,130.04L188.8,130.04L192,122.97L201.6,116.63L204.8,107.76L208,107.85L211.2,121.7L214.4,130.57L224,129.49L227.2,137.11L230.4,138.17L233.6,152.11L236.8,142.3L246.4,134.37L249.6,133.67L252.8,141.97L256,130.57L259.2,114.09L268.8,128.03L272,123.09L278.4,110.29L281.6,120.43L291.2,126.77L294.4,122.97L300.8,132.25L304,139.25L313.6,150.85L316.8,122.97L320,122.13L323.2,128.03L336,136.91L339.2,131.13L345.6,71.01L348.8,53.27L358.4,53.27L361.6,36.79L364.8,15.25L368,31.72L371.2,46.93L380.8,82.41L384,47.56L387.2,27.92L390.4,13.5L393.6,22.16L406.4,60.87L409.6,72.28L412.8,79.88L416,79.88L425.6,143.06L428.8,128.28L432,134.37L435.2,168.04L438.4,168.04L451.2,136.91L454.4,119.16L457.6,128.03L460.8,120.43L470.4,126.77L473.6,134.37L476.8,151.23L480,182.04" style="vector-effect: non-scaling-stroke; fill: none; stroke: rgb(99, 110, 250); stroke-opacity: 1; stroke-width: 2px; opacity: 1;"/></g><g class="points"/><g class="text"/></g><g class="trace scatter traceb64f64" style="stroke-miterlimit: 2; opacity: 1;"><g class="fills"/><g class="errorbars"/><g class="lines"><path class="js-line" d="M0,245.76L6.4,248.82L9.6,248.15L12.8,247.69L22.4,248.84L25.6,247.98L28.8,245.67L32,248.94L35.2,248.11L44.8,247.98L48,246.64L51.2,248.09L54.4,247.76L57.6,248.22L67.2,247.49L76.8,250.23L80,249.11L89.6,248.52L92.8,247.52L99.2,243.44L102.4,244.39L118.4,244.45L121.6,245.74L124.8,245.05L134.4,244.86L140.8,240.92L144,241.24L147.2,244.25L156.8,241.84L160,237.13L163.2,241.8L166.4,240.1L169.6,239.87L179.2,242.58L182.4,246.35L192,245.02L201.6,245.92L208,245.63L211.2,247.32L214.4,248.03L224,247.31L227.2,248.66L230.4,248.54L233.6,249.7L236.8,247.92L246.4,247.98L249.6,249.22L252.8,250.49L256,249.31L259.2,246.39L268.8,247.71L272,247.75L278.4,246.47L281.6,247.64L291.2,248.44L294.4,246.99L300.8,246.8L304,247.26L313.6,247.87L316.8,244.11L320,243.73L326.4,245.53L336,244.87L339.2,244.41L342.4,240.58L348.8,234.46L358.4,234.83L361.6,233.64L364.8,228.51L371.2,234.67L380.8,239.35L384,234.5L387.2,231.73L390.4,230.39L393.6,233.56L406.4,236.95L409.6,235.94L416,237.32L425.6,240.49L428.8,235.3L432,236.86L435.2,244L438.4,242.32L451.2,239.17L454.4,239.39L457.6,241.09L460.8,241.09L470.4,245.04L473.6,249.17L476.8,251.58L480,254.97" style="vector-effect: non-scaling-stroke; fill: none; stroke: rgb(239, 85, 59); stroke-opacity: 1; stroke-width: 2px; opacity: 1;"/></g><g class="points"/><g class="text"/></g><g class="trace scatter trace2e1545" style="stroke-miterlimit: 2; opacity: 1;"><g class="fills"/><g class="errorbars"/><g class="lines"><path class="js-line" d="M0,245.76L6.4,248.84L9.6,248.28L12.8,247.69L22.4,248.87L25.6,247.93L28.8,245.66L32,248.9L35.2,248.49L44.8,248.4L48,246.68L51.2,248.24L54.4,247.96L57.6,248.37L67.2,247.65L76.8,250.28L80,248.98L92.8,248.28L96,247.42L102.4,247.05L112,246.13L118.4,246.74L121.6,247.96L124.8,247.64L134.4,248.09L140.8,246.42L144,247.52L147.2,249.6L156.8,250.66L160,249.51L163.2,249.58L166.4,247.33L169.6,249.08L179.2,250.08L182.4,251.37L192,250.26L201.6,252.39L214.4,253.87L224,253.2L227.2,254.17L230.4,253.84L233.6,254.44L236.8,253.17L246.4,254.19L249.6,256.22L256,256.48L259.2,254.58L268.8,254.63L272,255.51L281.6,255.54L291.2,255.61L294.4,254.08L300.8,252.97L304,251.47L313.6,251.03L316.8,248.09L320,247.79L326.4,249.68L336,248.24L339.2,247.82L342.4,245.66L348.8,242.49L358.4,242.71L361.6,243.19L364.8,238.88L371.2,243.1L380.8,245.16L384,242.04L387.2,240.7L390.4,240.44L393.6,243.91L406.4,243.57L409.6,240.19L416,242.1L425.6,241.31L428.8,237.13L432,238.48L435.2,243.03L438.4,240.68L451.2,239.7L454.4,240.45L457.6,242.24L460.8,242.5L470.4,246.19L473.6,250.54L480,253.84" style="vector-effect: non-scaling-stroke; fill: none; stroke: rgb(0, 204, 150); stroke-opacity: 1; stroke-width: 2px; opacity: 1;"/></g><g class="points"/><g class="text"/></g><g class="trace scatter trace633ec9" style="stroke-miterlimit: 2; opacity: 1;"><g class="fills"/><g class="errorbars"/><g class="lines"><path class="js-line" d="M0,245.76L3.2,245.83L6.4,247.14L9.6,248.46L12.8,245.12L22.4,246.23L25.6,237.3L28.8,228.05L32,233.28L35.2,226.06L44.8,225.05L51.2,224.19L54.4,222.35L57.6,221.56L67.2,220.47L70.4,220.66L73.6,222.86L76.8,227.86L80,229.04L89.6,223.49L92.8,212.79L96,198.7L99.2,178.57L102.4,186.59L112,193.63L115.2,193.38L118.4,190.98L121.6,194.3L124.8,192.45L134.4,187.36L137.6,177.65L140.8,160.74L144,158.2L147.2,169.83L156.8,142.54L160,117.2L163.2,149.63L166.4,150.77L169.6,142.7L179.2,154.38L182.4,175.45L185.6,173.09L188.8,173.09L192,165.73L201.6,164.63L204.8,159.25L208,158.19L211.2,167.66L214.4,174.12L224,173.46L227.2,180.2L230.4,178.68L233.6,191.29L236.8,186.44L246.4,181.73L252.8,185.86L256,180.27L259.2,169.35L268.8,176.05L272,174.35L278.4,166.87L281.6,169.95L291.2,174.95L294.4,173.93L300.8,180.7L304,180.84L313.6,190.17L316.8,167.47L320,169.14L323.2,172.72L326.4,172.93L336,178.11L339.2,174.56L345.6,137.08L348.8,125.33L358.4,125.33L361.6,117.18L364.8,97.14L368,112.4L371.2,119.59L380.8,134.68L387.2,94.49L390.4,82.05L393.6,89.72L403.2,103.6L406.4,112.44L409.6,110.59L412.8,110L416,105.72L425.6,137.43L428.8,118.96L432,126.42L435.2,161.95L438.4,158.05L451.2,128.87L454.4,118.47L457.6,126.18L460.8,120.41L470.4,130.43L476.8,156.02L480,177.41" style="vector-effect: non-scaling-stroke; fill: none; stroke: rgb(171, 99, 250); stroke-opacity: 1; stroke-width: 2px; opacity: 1;"/></g><g class="points"/><g class="text"/></g></g></g><g class="overplot"/><path class="xlines-above crisp" d="M0,0" style="fill: none;"/><path class="ylines-above crisp" d="M0,0" style="fill: none;"/><g class="overlines-above"/><g class="xaxislayer-above"><g class="xtick"><text text-anchor="middle" x="0" y="383" transform="translate(83.2,0)" style="font-family: 'Open Sans', verdana, arial, sans-serif; font-size: 12px; fill: rgb(42, 63, 95); fill-opacity: 1; white-space: pre;">Oct 2019</text></g><g class="xtick"><text text-anchor="middle" x="0" y="383" transform="translate(182.4,0)" style="font-family: 'Open Sans', verdana, arial, sans-serif; font-size: 12px; fill: rgb(42, 63, 95); fill-opacity: 1; white-space: pre;">Nov 2019</text></g><g class="xtick"><text text-anchor="middle" x="0" y="383" transform="translate(278.4,0)" style="font-family: 'Open Sans', verdana, arial, sans-serif; font-size: 12px; fill: rgb(42, 63, 95); fill-opacity: 1; white-space: pre;">Dec 2019</text></g><g class="xtick"><text text-anchor="middle" x="0" y="383" transform="translate(377.6,0)" style="font-family: 'Open Sans', verdana, arial, sans-serif; font-size: 12px; fill: rgb(42, 63, 95); fill-opacity: 1; white-space: pre;">Jan 2020</text></g><g class="xtick"><text text-anchor="middle" x="0" y="383" transform="translate(476.8,0)" style="font-family: 'Open Sans', verdana, arial, sans-serif; font-size: 12px; fill: rgb(42, 63, 95); fill-opacity: 1; white-space: pre;">Feb 2020</text></g></g><g class="yaxislayer-above"><g class="ytick"><text text-anchor="end" x="79" y="4.199999999999999" transform="translate(0,345.76)" style="font-family: 'Open Sans', verdana, arial, sans-serif; font-size: 12px; fill: rgb(42, 63, 95); fill-opacity: 1; white-space: pre;">1</text></g><g class="ytick"><text text-anchor="end" x="79" y="4.199999999999999" transform="translate(0,284.81)" style="font-family: 'Open Sans', verdana, arial, sans-serif; font-size: 12px; fill: rgb(42, 63, 95); fill-opacity: 1; white-space: pre;">2</text></g><g class="ytick"><text text-anchor="end" x="79" y="4.199999999999999" transform="translate(0,223.85)" style="font-family: 'Open Sans', verdana, arial, sans-serif; font-size: 12px; fill: rgb(42, 63, 95); fill-opacity: 1; white-space: pre;">3</text></g><g class="ytick"><text text-anchor="end" x="79" y="4.199999999999999" transform="translate(0,162.9)" style="font-family: 'Open Sans', verdana, arial, sans-serif; font-size: 12px; fill: rgb(42, 63, 95); fill-opacity: 1; white-space: pre;">4</text></g><g class="ytick"><text text-anchor="end" x="79" y="4.199999999999999" transform="translate(0,101.94)" style="font-family: 'Open Sans', verdana, arial, sans-serif; font-size: 12px; fill: rgb(42, 63, 95); fill-opacity: 1; white-space: pre;">5</text></g></g><g class="overaxes-above"/></g></g><g class="polarlayer"/><g class="ternarylayer"/><g class="geolayer"/><g class="funnelarealayer"/><g class="pielayer"/><g class="treemaplayer"/><g class="sunburstlayer"/><g class="glimages"/><defs id="topdefs-5f3e99"><g class="clips"/><clipPath id="legend5f3e99"><rect width="118" height="86" x="0" y="0"/></clipPath></defs><g class="layer-above"><g class="imagelayer"/><g class="shapelayer"/></g><g class="infolayer"><g class="legend" pointer-events="all" transform="translate(569.6, 100)"><rect class="bg" shape-rendering="crispEdges" width="118" height="86" x="0" y="0" style="stroke: rgb(68, 68, 68); stroke-opacity: 1; fill: rgb(255, 255, 255); fill-opacity: 1; stroke-width: 0px;"/><g class="scrollbox" transform="translate(0, 0)" clip-path="url('#legend5f3e99')"><g class="groups"><g class="traces" transform="translate(0, 14.5)" style="opacity: 1;"><text class="legendtext user-select-none" text-anchor="start" x="40" y="4.680000000000001" style="font-family: 'Open Sans', verdana, arial, sans-serif; font-size: 12px; fill: rgb(42, 63, 95); fill-opacity: 1; white-space: pre;">Best Stock</text><g class="layers" style="opacity: 1;"><g class="legendfill"/><g class="legendlines"><path class="js-line" d="M5,0h30" style="fill: none; stroke: rgb(99, 110, 250); stroke-opacity: 1; stroke-width: 2px;"/></g><g class="legendsymbols"><g class="legendpoints"/></g></g><rect class="legendtoggle" pointer-events="all" x="0" y="-9.5" width="112.046875" height="19" style="cursor: pointer; fill: rgb(0, 0, 0); fill-opacity: 0;"/></g><g class="traces" transform="translate(0, 33.5)" style="opacity: 1;"><text class="legendtext user-select-none" text-anchor="start" x="40" y="4.680000000000001" style="font-family: 'Open Sans', verdana, arial, sans-serif; font-size: 12px; fill: rgb(42, 63, 95); fill-opacity: 1; white-space: pre;">Buy and Hold</text><g class="layers" style="opacity: 1;"><g class="legendfill"/><g class="legendlines"><path class="js-line" d="M5,0h30" style="fill: none; stroke: rgb(239, 85, 59); stroke-opacity: 1; stroke-width: 2px;"/></g><g class="legendsymbols"><g class="legendpoints"/></g></g><rect class="legendtoggle" pointer-events="all" x="0" y="-9.5" width="112.046875" height="19" style="cursor: pointer; fill: rgb(0, 0, 0); fill-opacity: 0;"/></g><g class="traces" transform="translate(0, 52.5)" style="opacity: 1;"><text class="legendtext user-select-none" text-anchor="start" x="40" y="4.680000000000001" style="font-family: 'Open Sans', verdana, arial, sans-serif; font-size: 12px; fill: rgb(42, 63, 95); fill-opacity: 1; white-space: pre;">CRP</text><g class="layers" style="opacity: 1;"><g class="legendfill"/><g class="legendlines"><path class="js-line" d="M5,0h30" style="fill: none; stroke: rgb(0, 204, 150); stroke-opacity: 1; stroke-width: 2px;"/></g><g class="legendsymbols"><g class="legendpoints"/></g></g><rect class="legendtoggle" pointer-events="all" x="0" y="-9.5" width="112.046875" height="19" style="cursor: pointer; fill: rgb(0, 0, 0); fill-opacity: 0;"/></g><g class="traces" transform="translate(0, 71.5)" style="opacity: 1;"><text class="legendtext user-select-none" text-anchor="start" x="40" y="4.680000000000001" style="font-family: 'Open Sans', verdana, arial, sans-serif; font-size: 12px; fill: rgb(42, 63, 95); fill-opacity: 1; white-space: pre;">BCRP</text><g class="layers" style="opacity: 1;"><g class="legendfill"/><g class="legendlines"><path class="js-line" d="M5,0h30" style="fill: none; stroke: rgb(171, 99, 250); stroke-opacity: 1; stroke-width: 2px;"/></g><g class="legendsymbols"><g class="legendpoints"/></g></g><rect class="legendtoggle" pointer-events="all" x="0" y="-9.5" width="112.046875" height="19" style="cursor: pointer; fill: rgb(0, 0, 0); fill-opacity: 0;"/></g></g></g><rect class="scrollbar" rx="20" ry="3" width="0" height="0" x="0" y="0" style="fill: rgb(128, 139, 164); fill-opacity: 1;"/></g><g class="g-gtitle"><text class="gtitle" x="35" y="50" text-anchor="start" dy="0em" style="font-family: 'Open Sans', verdana, arial, sans-serif; font-size: 17px; fill: rgb(42, 63, 95); opacity: 1; font-weight: normal; white-space: pre;">Performance Before Crash</text></g><g class="g-xtitle"><text class="xtitle" x="320" y="410.8" text-anchor="middle" style="font-family: 'Open Sans', verdana, arial, sans-serif; font-size: 14px; fill: rgb(42, 63, 95); opacity: 1; font-weight: normal; white-space: pre;">Date</text></g><g class="g-ytitle"><text class="ytitle" transform="rotate(-90,47.5125,235)" x="47.5125" y="235" text-anchor="middle" style="font-family: 'Open Sans', verdana, arial, sans-serif; font-size: 14px; fill: rgb(42, 63, 95); opacity: 1; font-weight: normal; white-space: pre;">Relative Returns</text></g></g></svg>