<svg class="main-svg" xmlns="http://www.w3.org/2000/svg" xmlns:xlink="http://www.w3.org/1999/xlink" width="700" height="450" viewBox="0 0 700 450"><rect x="0" y="0" width="700" height="450" style="fill: rgb(255, 255, 255); fill-opacity: 1;"/><defs id="defs-2b560f"><g class="clips"><clipPath id="clip2b560fxyplot" class="plotclip"><rect width="480" height="270"/></clipPath><clipPath class="axesclip" id="clip2b560fx"><rect x="80" y="0" width="480" height="450"/></clipPath><clipPath class="axesclip" id="clip2b560fy"><rect x="0" y="100" width="700" height="270"/></clipPath><clipPath class="axesclip" id="clip2b560fxy"><rect x="80" y="100" width="480" height="270"/></clipPath></g><g class="gradients"/></defs><g class="bglayer"><rect class="bg" x="80" y="100" width="480" height="270" style="fill: rgb(229, 236, 246); fill-opacity: 1; stroke-width: 0;"/></g><g class="layer-below"><g class="imagelayer"/><g class="shapelayer"/></g><g class="cartesianlayer"><g class="subplot xy"><g class="layer-subplot"><g class="shapelayer"/><g class="imagelayer"/></g><g class="gridlayer"><g class="x"><path class="xgrid crisp" transform="translate(83.2,0)" d="M0,100v270" style="stroke: rgb(255, 255, 255); stroke-opacity: 1; stroke-width: 1px;"/><path class="xgrid crisp" transform="translate(182.4,0)" d="M0,100v270" style="stroke: rgb(255, 255, 255); stroke-opacity: 1; stroke-width: 1px;"/><path class="xgrid crisp" transform="translate(278.4,0)" d="M0,100v270" style="stroke: rgb(255, 255, 255); stroke-opacity: 1; stroke-width: 1px;"/><path class="xgrid crisp" transform="translate(377.6,0)" d="M0,100v270" style="stroke: rgb(255, 255, 255); stroke-opacity: 1; stroke-width: 1px;"/><path class="xgrid crisp" transform="translate(476.8,0)" d="M0,100v270" style="stroke: rgb(255, 255, 255); stroke-opacity: 1; stroke-width: 1px;"/></g><g class="y"><path class="ygrid crisp" transform="translate(0,335.99)" d="M80,0h480" style="stroke: rgb(255, 255, 255); stroke-opacity: 1; stroke-width: 1px;"/><path class="ygrid crisp" transform="translate(0,261.82)" d="M80,0h480" style="stroke: rgb(255, 255, 255); stroke-opacity: 1; stroke-width: 1px;"/><path class="ygrid crisp" transform="translate(0,187.66)" d="M80,0h480" style="stroke: rgb(255, 255, 255); stroke-opacity: 1; stroke-width: 1px;"/><path class="ygrid crisp" transform="translate(0,113.5)" d="M80,0h480" style="stroke: rgb(255, 255, 255); stroke-opacity: 1; stroke-width: 1px;"/></g></g><g class="zerolinelayer"/><path class="xlines-below"/><path class="ylines-below"/><g class="overlines-below"/><g class="xaxislayer-below"/><g class="yaxislayer-below"/><g class="overaxes-below"/><g class="plot" transform="translate(80, 100)" clip-path="url('#clip2b560fxyplot')"><g class="scatterlayer mlayer"><g class="trace scatter trace30f916" style="stroke-miterlimit: 2; opacity: 1;"><g class="fills"/><g class="errorbars"/><g class="lines"><path class="js-line" d="M0,161.82L3.2,171.29L6.4,190.23L9.6,206.01L12.8,196.54L22.4,196.54L25.6,180.76L28.8,161.82L32,174.45L35.2,183.92L48,174.45L51.2,177.6L54.4,177.6L57.6,180.76L67.2,177.6L70.4,177.6L73.6,187.07L76.8,193.38L80,193.38L89.6,187.07L92.8,190.23L96,187.07L99.2,196.54L102.4,199.69L112,196.54L118.4,209.16L121.6,209.16L124.8,212.32L134.4,215.47L137.6,212.32L140.8,212.32L144,218.63L147.2,218.63L156.8,215.47L160,221.79L163.2,228.1L166.4,231.25L169.6,237.56L179.2,234.41L182.4,234.41L185.6,231.25L188.8,231.25L192,221.79L201.6,231.25L204.8,231.25L208,228.1L211.2,231.25L214.4,234.41L224,234.41L227.2,240.72L230.4,234.41L233.6,247.03L236.8,250.19L246.4,250.19L249.6,256.5L252.8,250.19L256,253.34L259.2,250.19L268.8,247.03L272,250.19L281.6,243.88L291.2,247.03L294.4,250.19L300.8,253.34L304,243.88L313.6,250.19L316.8,234.41L320,240.72L323.2,240.72L326.4,237.56L336,240.72L339.2,240.72L342.4,237.56L345.6,237.56L348.8,234.41L358.4,234.41L361.6,237.56L364.8,221.79L368,234.41L371.2,231.25L380.8,218.63L384,221.79L387.2,202.85L390.4,193.38L393.6,199.69L403.2,190.23L406.4,196.54L412.8,146.05L416,127.11L425.6,60.84L428.8,13.5L432,32.44L435.2,89.24L438.4,57.68L451.2,38.75L454.4,76.62L457.6,79.77L460.8,82.93L470.4,114.49L473.6,149.2L476.8,152.36L480,136.58" style="vector-effect: non-scaling-stroke; fill: none; stroke: rgb(99, 110, 250); stroke-opacity: 1; stroke-width: 2px; opacity: 1;"/></g><g class="points"/><g class="text"/></g><g class="trace scatter tracefe4b22" style="stroke-miterlimit: 2; opacity: 1;"><g class="fills"/><g class="errorbars"/><g class="lines"><path class="js-line" d="M0,161.82L6.4,170.4L9.6,168.64L12.8,168.23L22.4,170.96L25.6,171.21L28.8,167.54L32,174.99L35.2,175.65L48,171.71L51.2,175.97L54.4,175.75L57.6,177.44L67.2,175.7L70.4,178.15L73.6,180.36L76.8,181.11L80,177.65L89.6,177.82L99.2,181.89L102.4,181.44L112,178.51L115.2,179.05L121.6,182.62L124.8,181.79L134.4,183.66L137.6,182.98L140.8,183.99L144,186.74L147.2,189.69L156.8,194.69L160,194.31L163.2,192.88L166.4,188.28L169.6,192.47L182.4,194.11L185.6,193.52L192,193.03L201.6,197.17L208,198.76L211.2,199.59L224,197.44L227.2,199.04L233.6,197.8L236.8,195.64L246.4,197.93L249.6,201.47L252.8,202.66L256,202.57L259.2,199.11L268.8,198.92L272,200.37L281.6,200.78L291.2,201.25L294.4,198.33L300.8,195.33L304,194.67L313.6,193.17L316.8,190.55L320,189.76L323.2,191.19L326.4,192.43L336,188.84L339.2,189.15L342.4,186.78L345.6,186.37L348.8,183.31L358.4,184.32L361.6,185.55L364.8,177.52L368,181.91L371.2,185.58L380.8,188.65L384,184.97L387.2,182.79L390.4,183.07L393.6,189.3L403.2,189.58L406.4,187.99L409.6,182.17L412.8,183.04L416,183.84L425.6,175.34L428.8,165.3L432,167.87L435.2,178.08L438.4,173.54L451.2,173.45L454.4,178.82L460.8,183.07L470.4,192.05L473.6,201.15L476.8,203.11L480,203.94" style="vector-effect: non-scaling-stroke; fill: none; stroke: rgb(239, 85, 59); stroke-opacity: 1; stroke-width: 2px; opacity: 1;"/></g><g class="points"/><g class="text"/></g><g class="trace scatter trace3d8b9b" style="stroke-miterlimit: 2; opacity: 1;"><g class="fills"/><g class="errorbars"/><g class="lines"><path class="js-line" d="M0,161.82L6.4,170.43L9.6,168.99L12.8,168.19L22.4,170.99L25.6,170.79L28.8,166.8L32,174.27L35.2,175.29L48,170.64L51.2,174.9L54.4,174.61L57.6,175.91L67.2,174.21L70.4,176.96L73.6,178.98L76.8,179.77L80,176.18L89.6,176.29L92.8,177.95L96,178.42L99.2,180.88L102.4,180.1L112,176.74L115.2,177.33L121.6,181.5L124.8,181.11L134.4,183.09L137.6,182.18L140.8,182.69L144,185.79L147.2,189.31L156.8,194.99L160,195.01L163.2,192.67L166.4,187.52L169.6,192.66L182.4,194.39L185.6,193.81L188.8,193.59L192,192.51L204.8,199.14L208,199.07L214.4,200.39L224,198.93L227.2,200.63L230.4,199.79L233.6,200.18L236.8,197.98L246.4,200.96L249.6,205.7L256,206.54L259.2,203.25L268.8,202.52L272,204.87L291.2,204.91L294.4,201.64L300.8,198.49L304,194.54L313.6,192.62L316.8,188.06L320,187.43L323.2,188.89L326.4,191.21L336,187.38L339.2,186.86L342.4,184.13L345.6,183.21L348.8,180.08L358.4,180.57L361.6,182.59L364.8,174.11L368,178.5L371.2,181.85L380.8,184.53L384,179.62L387.2,177.72L390.4,177.9L393.6,185.15L406.4,182.43L409.6,174.18L416,178.03L425.6,172.15L428.8,163.74L432,166.35L435.2,173.87L438.4,168.28L451.2,169.48L454.4,172.86L457.6,176.26L460.8,177.5L470.4,185.47L473.6,194.83L480,198.65" style="vector-effect: non-scaling-stroke; fill: none; stroke: rgb(0, 204, 150); stroke-opacity: 1; stroke-width: 2px; opacity: 1;"/></g><g class="points"/><g class="text"/></g><g class="trace scatter traceaa75fa" style="stroke-miterlimit: 2; opacity: 1;"><g class="fills"/><g class="errorbars"/><g class="lines"><path class="js-line" d="M0,161.82L3.2,169.04L6.4,182.12L9.6,192.08L12.8,184.83L22.4,185.36L25.6,176.17L28.8,162.57L32,169.74L35.2,174L48,168.15L51.2,171.52L54.4,170.93L57.6,174.23L67.2,171.15L70.4,171.52L73.6,177.42L76.8,182.2L80,181.79L89.6,176.74L92.8,179L96,176.17L99.2,183.19L102.4,183.4L112,180.14L118.4,189.85L121.6,189.97L124.8,192.14L134.4,194.47L137.6,191.49L140.8,192.23L144,198.2L147.2,197.64L156.8,196.66L160,200.75L163.2,206.31L166.4,208.28L169.6,211.65L179.2,209.66L182.4,209.37L185.6,206.23L188.8,206.83L192,198.89L201.6,206.69L204.8,207.4L208,204.87L211.2,207.79L214.4,209.94L224,209.79L227.2,215.5L230.4,209.18L233.6,219.16L236.8,222.03L246.4,221.78L249.6,227.82L252.8,222.05L256,224.04L259.2,217.16L268.8,214.18L272,217.9L281.6,211.4L291.2,214.63L294.4,217.85L300.8,220.57L304,211.19L313.6,216.09L316.8,200.19L320,206.06L323.2,206.15L326.4,203.5L336,205.89L339.2,206.11L342.4,202.47L345.6,202.03L348.8,199.5L358.4,199.55L361.6,203.23L364.8,187.89L368,198.83L371.2,196.22L380.8,186.52L384,188.29L387.2,171.87L390.4,164.88L393.6,171.05L403.2,162.17L406.4,167.74L409.6,144.43L412.8,128.42L416,116.34L425.6,70.78L428.8,39.96L432,53.13L435.2,87.95L438.4,69.93L451.2,54.36L454.4,76.66L457.6,78.48L460.8,82.75L470.4,106.07L473.6,132.53L476.8,134.68L480,125.59" style="vector-effect: non-scaling-stroke; fill: none; stroke: rgb(171, 99, 250); stroke-opacity: 1; stroke-width: 2px; opacity: 1;"/></g><g class="points"/><g class="text"/></g></g></g><g class="overplot"/><path class="xlines-above crisp" d="M0,0" style="fill: none;"/><path class="ylines-above crisp" d="M0,0" style="fill: none;"/><g class="overlines-above"/><g class="xaxislayer-above"><g class="xtick"><text text-anchor="middle" x="0" y="383" transform="translate(83.2,0)" style="font-family: 'Open Sans', verdana, arial, sans-serif; font-size: 12px; fill: rgb(42, 63, 95); fill-opacity: 1; white-space: pre;">Oct 2019</text></g><g class="xtick"><text text-anchor="middle" x="0" y="383" transform="translate(182.4,0)" style="font-family: 'Open Sans', verdana, arial, sans-serif; font-size: 12px; fill: rgb(42, 63, 95); fill-opacity: 1; white-space: pre;">Nov 2019</text></g><g class="xtick"><text text-anchor="middle" x="0" y="383" transform="translate(278.4,0)" style="font-family: 'Open Sans', verdana, arial, sans-serif; font-size: 12px; fill: rgb(42, 63, 95); fill-opacity: 1; white-space: pre;">Dec 2019</text></g><g class="xtick"><text text-anchor="middle" x="0" y="383" transform="translate(377.6,0)" style="font-family: 'Open Sans', verdana, arial, sans-serif; font-size: 12px; fill: rgb(42, 63, 95); fill-opacity: 1; white-space: pre;">Jan 2020</text></g><g class="xtick"><text text-anchor="middle" x="0" y="383" transform="translate(476.8,0)" style="font-family: 'Open Sans', verdana, arial, sans-serif; font-size: 12px; fill: rgb(42, 63, 95); fill-opacity: 1; white-space: pre;">Feb 2020</text></g></g><g class="yaxislayer-above"><g class="ytick"><text text-anchor="end" x="79" y="4.199999999999999" transform="translate(0,335.99)" style="font-family: 'Open Sans', verdana, arial, sans-serif; font-size: 12px; fill: rgb(42, 63, 95); fill-opacity: 1; white-space: pre;">0.5</text></g><g class="ytick"><text text-anchor="end" x="79" y="4.199999999999999" transform="translate(0,261.82)" style="font-family: 'Open Sans', verdana, arial, sans-serif; font-size: 12px; fill: rgb(42, 63, 95); fill-opacity: 1; white-space: pre;">1</text></g><g class="ytick"><text text-anchor="end" x="79" y="4.199999999999999" transform="translate(0,187.66)" style="font-family: 'Open Sans', verdana, arial, sans-serif; font-size: 12px; fill: rgb(42, 63, 95); fill-opacity: 1; white-space: pre;">1.5</text></g><g class="ytick"><text text-anchor="end" x="79" y="4.199999999999999" transform="translate(0,113.5)" style="font-family: 'Open Sans', verdana, arial, sans-serif; font-size: 12px; fill: rgb(42, 63, 95); fill-opacity: 1; white-space: pre;">2</text></g></g><g class="overaxes-above"/></g></g><g class="polarlayer"/><g class="ternarylayer"/><g class="geolayer"/><g class="funnelarealayer"/><g class="pielayer"/><g class="treemaplayer"/><g class="sunburstlayer"/><g class="glimages"/><defs id="topdefs-2b560f"><g class="clips"/><clipPath id="legend2b560f"><rect width="118" height="86" x="0" y="0"/></clipPath></defs><g class="layer-above"><g class="imagelayer"/><g class="shapelayer"/></g><g class="infolayer"><g class="legend" pointer-events="all" transform="translate(569.6, 100)"><rect class="bg" shape-rendering="crispEdges" width="118" height="86" x="0" y="0" style="stroke: rgb(68, 68, 68); stroke-opacity: 1; fill: rgb(255, 255, 255); fill-opacity: 1; stroke-width: 0px;"/><g class="scrollbox" transform="translate(0, 0)" clip-path="url('#legend2b560f')"><g class="groups"><g class="traces" transform="translate(0, 14.5)" style="opacity: 1;"><text class="legendtext user-select-none" text-anchor="start" x="40" y="4.680000000000001" style="font-family: 'Open Sans', verdana, arial, sans-serif; font-size: 12px; fill: rgb(42, 63, 95); fill-opacity: 1; white-space: pre;">Best Stock</text><g class="layers" style="opacity: 1;"><g class="legendfill"/><g class="legendlines"><path class="js-line" d="M5,0h30" style="fill: none; stroke: rgb(99, 110, 250); stroke-opacity: 1; stroke-width: 2px;"/></g><g class="legendsymbols"><g class="legendpoints"/></g></g><rect class="legendtoggle" pointer-events="all" x="0" y="-9.5" width="112.046875" height="19" style="cursor: pointer; fill: rgb(0, 0, 0); fill-opacity: 0;"/></g><g class="traces" transform="translate(0, 33.5)" style="opacity: 1;"><text class="legendtext user-select-none" text-anchor="start" x="40" y="4.680000000000001" style="font-family: 'Open Sans', verdana, arial, sans-serif; font-size: 12px; fill: rgb(42, 63, 95); fill-opacity: 1; white-space: pre;">Buy and Hold</text><g class="layers" style="opacity: 1;"><g class="legendfill"/><g class="legendlines"><path class="js-line" d="M5,0h30" style="fill: none; stroke: rgb(239, 85, 59); stroke-opacity: 1; stroke-width: 2px;"/></g><g class="legendsymbols"><g class="legendpoints"/></g></g><rect class="legendtoggle" pointer-events="all" x="0" y="-9.5" width="112.046875" height="19" style="cursor: pointer; fill: rgb(0, 0, 0); fill-opacity: 0;"/></g><g class="traces" transform="translate(0, 52.5)" style="opacity: 1;"><text class="legendtext user-select-none" text-anchor="start" x="40" y="4.680000000000001" style="font-family: 'Open Sans', verdana, arial, sans-serif; font-size: 12px; fill: rgb(42, 63, 95); fill-opacity: 1; white-space: pre;">CRP</text><g class="layers" style="opacity: 1;"><g class="legendfill"/><g class="legendlines"><path class="js-line" d="M5,0h30" style="fill: none; stroke: rgb(0, 204, 150); stroke-opacity: 1; stroke-width: 2px;"/></g><g class="legendsymbols"><g class="legendpoints"/></g></g><rect class="legendtoggle" pointer-events="all" x="0" y="-9.5" width="112.046875" height="19" style="cursor: pointer; fill: rgb(0, 0, 0); fill-opacity: 0;"/></g><g class="traces" transform="translate(0, 71.5)" style="opacity: 1;"><text class="legendtext user-select-none" text-anchor="start" x="40" y="4.680000000000001" style="font-family: 'Open Sans', verdana, arial, sans-serif; font-size: 12px; fill: rgb(42, 63, 95); fill-opacity: 1; white-space: pre;">BCRP</text><g class="layers" style="opacity: 1;"><g class="legendfill"/><g class="legendlines"><path class="js-line" d="M5,0h30" style="fill: none; stroke: rgb(171, 99, 250); stroke-opacity: 1; stroke-width: 2px;"/></g><g class="legendsymbols"><g class="legendpoints"/></g></g><rect class="legendtoggle" pointer-events="all" x="0" y="-9.5" width="112.046875" height="19" style="cursor: pointer; fill: rgb(0, 0, 0); fill-opacity: 0;"/></g></g></g><rect class="scrollbar" rx="20" ry="3" width="0" height="0" x="0" y="0" style="fill: rgb(128, 139, 164); fill-opacity: 1;"/></g><g class="g-gtitle"><text class="gtitle" x="35" y="50" text-anchor="start" dy="0em" style="font-family: 'Open Sans', verdana, arial, sans-serif; font-size: 17px; fill: rgb(42, 63, 95); opacity: 1; font-weight: normal; white-space: pre;">Performance Before Crash</text></g><g class="g-xtitle"><text class="xtitle" x="320" y="410.8" text-anchor="middle" style="font-family: 'Open Sans', verdana, arial, sans-serif; font-size: 14px; fill: rgb(42, 63, 95); opacity: 1; font-weight: normal; white-space: pre;">Date</text></g><g class="g-ytitle"><text class="ytitle" transform="rotate(-90,37.5125,235)" x="37.5125" y="235" text-anchor="middle" style="font-family: 'Open Sans', verdana, arial, sans-serif; font-size: 14px; fill: rgb(42, 63, 95); opacity: 1; font-weight: normal; white-space: pre;">Relative Returns</text></g></g></svg>